<svg xmlns="http://www.w3.org/2000/svg" xmlns:xlink="http://www.w3.org/1999/xlink" contentStyleType="text/css" data-diagram-type="MINDMAP" height="1418px" preserveAspectRatio="none" style="width:963px;height:1418px;background:#FFFFFF;" version="1.1" viewBox="0 0 963 1418" width="963px" zoomAndPan="magnify"><?plantuml $version$?><defs/><g><rect fill="#F1F3F5" height="35.1328" rx="3" ry="3" style="stroke:#181818;stroke-width:1.5;" width="106.9248" x="427.7861" y="681.5938"/><text fill="#000000" font-family="'DejaVu Sans'" font-size="13" lengthAdjust="spacing" textLength="86.9248" x="437.7861" y="703.6606">CpgEdgeKind</text><rect fill="#FFF3BF" height="50.2656" rx="3" ry="3" style="stroke:#181818;stroke-width:1.5;" width="175.0415" x="584.7109" y="343.2305"/><text fill="#000000" font-family="'DejaVu Sans'" font-size="13" lengthAdjust="spacing" textLength="155.0415" x="594.7109" y="365.2974">DataFlow(DfgEdgeKind)</text><text fill="#000000" font-family="'DejaVu Sans'" font-size="13" lengthAdjust="spacing" textLength="26.6855" x="594.7109" y="380.4302">(13)</text><rect fill="#FFF3BF" height="35.1328" rx="3" ry="3" style="stroke:#181818;stroke-width:1.5;" width="66.8711" x="809.7524" y="20"/><text fill="#000000" font-family="'DejaVu Sans'" font-size="13" lengthAdjust="spacing" textLength="46.8711" x="819.7524" y="42.0669">DefUse</text><path d="M759.7524,368.3633 L769.7524,368.3633 C784.7524,368.3633 784.7524,37.5664 799.7524,37.5664 L809.7524,37.5664" fill="none" style="stroke:#495057;stroke-width:1.1;"/><rect fill="#FFF3BF" height="35.1328" rx="3" ry="3" style="stroke:#181818;stroke-width:1.5;" width="66.8711" x="809.7524" y="75.1328"/><text fill="#000000" font-family="'DejaVu Sans'" font-size="13" lengthAdjust="spacing" textLength="46.8711" x="819.7524" y="97.1997">UseDef</text><path d="M759.7524,368.3633 L769.7524,368.3633 C784.7524,368.3633 784.7524,92.6992 799.7524,92.6992 L809.7524,92.6992" fill="none" style="stroke:#495057;stroke-width:1.1;"/><rect fill="#FFF3BF" height="35.1328" rx="3" ry="3" style="stroke:#181818;stroke-width:1.5;" width="103.0718" x="809.7524" y="130.2656"/><text fill="#000000" font-family="'DejaVu Sans'" font-size="13" lengthAdjust="spacing" textLength="83.0718" x="819.7524" y="152.3325">ReachingDef</text><path d="M759.7524,368.3633 L769.7524,368.3633 C784.7524,368.3633 784.7524,147.832 799.7524,147.832 L809.7524,147.832" fill="none" style="stroke:#495057;stroke-width:1.1;"/><rect fill="#FFF3BF" height="35.1328" rx="3" ry="3" style="stroke:#181818;stroke-width:1.5;" width="132.8677" x="809.7524" y="185.3984"/><text fill="#000000" font-family="'DejaVu Sans'" font-size="13" lengthAdjust="spacing" textLength="112.8677" x="819.7524" y="207.4653">DataDependency</text><path d="M759.7524,368.3633 L769.7524,368.3633 C784.7524,368.3633 784.7524,202.9648 799.7524,202.9648 L809.7524,202.9648" fill="none" style="stroke:#495057;stroke-width:1.1;"/><rect fill="#FFF3BF" height="35.1328" rx="3" ry="3" style="stroke:#181818;stroke-width:1.5;" width="88.2183" x="809.7524" y="240.5313"/><text fill="#000000" font-family="'DejaVu Sans'" font-size="13" lengthAdjust="spacing" textLength="68.2183" x="819.7524" y="262.5981">Parameter</text><path d="M759.7524,368.3633 L769.7524,368.3633 C784.7524,368.3633 784.7524,258.0977 799.7524,258.0977 L809.7524,258.0977" fill="none" style="stroke:#495057;stroke-width:1.1;"/><rect fill="#FFF3BF" height="35.1328" rx="3" ry="3" style="stroke:#181818;stroke-width:1.5;" width="100.6597" x="809.7524" y="295.6641"/><text fill="#000000" font-family="'DejaVu Sans'" font-size="13" lengthAdjust="spacing" textLength="80.6597" x="819.7524" y="317.731">ReturnValue</text><path d="M759.7524,368.3633 L769.7524,368.3633 C784.7524,368.3633 784.7524,313.2305 799.7524,313.2305 L809.7524,313.2305" fill="none" style="stroke:#495057;stroke-width:1.1;"/><rect fill="#FFF3BF" height="35.1328" rx="3" ry="3" style="stroke:#181818;stroke-width:1.5;" width="84.2002" x="809.7524" y="350.7969"/><text fill="#000000" font-family="'DejaVu Sans'" font-size="13" lengthAdjust="spacing" textLength="64.2002" x="819.7524" y="372.8638">FieldRead</text><path d="M759.7524,368.3633 L769.7524,368.3633 C784.7524,368.3633 784.7524,368.3633 799.7524,368.3633 L809.7524,368.3633" fill="none" style="stroke:#495057;stroke-width:1.1;"/><rect fill="#FFF3BF" height="35.1328" rx="3" ry="3" style="stroke:#181818;stroke-width:1.5;" width="85.8569" x="809.7524" y="405.9297"/><text fill="#000000" font-family="'DejaVu Sans'" font-size="13" lengthAdjust="spacing" textLength="65.8569" x="819.7524" y="427.9966">FieldWrite</text><path d="M759.7524,368.3633 L769.7524,368.3633 C784.7524,368.3633 784.7524,423.4961 799.7524,423.4961 L809.7524,423.4961" fill="none" style="stroke:#495057;stroke-width:1.1;"/><rect fill="#FFF3BF" height="35.1328" rx="3" ry="3" style="stroke:#181818;stroke-width:1.5;" width="89.2656" x="809.7524" y="461.0625"/><text fill="#000000" font-family="'DejaVu Sans'" font-size="13" lengthAdjust="spacing" textLength="69.2656" x="819.7524" y="483.1294">IndexRead</text><path d="M759.7524,368.3633 L769.7524,368.3633 C784.7524,368.3633 784.7524,478.6289 799.7524,478.6289 L809.7524,478.6289" fill="none" style="stroke:#495057;stroke-width:1.1;"/><rect fill="#FFF3BF" height="35.1328" rx="3" ry="3" style="stroke:#181818;stroke-width:1.5;" width="90.9224" x="809.7524" y="516.1953"/><text fill="#000000" font-family="'DejaVu Sans'" font-size="13" lengthAdjust="spacing" textLength="70.9224" x="819.7524" y="538.2622">IndexWrite</text><path d="M759.7524,368.3633 L769.7524,368.3633 C784.7524,368.3633 784.7524,533.7617 799.7524,533.7617 L809.7524,533.7617" fill="none" style="stroke:#495057;stroke-width:1.1;"/><rect fill="#FFF3BF" height="35.1328" rx="3" ry="3" style="stroke:#181818;stroke-width:1.5;" width="50.856" x="809.7524" y="571.3281"/><text fill="#000000" font-family="'DejaVu Sans'" font-size="13" lengthAdjust="spacing" textLength="30.856" x="819.7524" y="593.395">Alias</text><path d="M759.7524,368.3633 L769.7524,368.3633 C784.7524,368.3633 784.7524,588.8945 799.7524,588.8945 L809.7524,588.8945" fill="none" style="stroke:#495057;stroke-width:1.1;"/><rect fill="#FFF3BF" height="35.1328" rx="3" ry="3" style="stroke:#181818;stroke-width:1.5;" width="100.6533" x="809.7524" y="626.4609"/><text fill="#000000" font-family="'DejaVu Sans'" font-size="13" lengthAdjust="spacing" textLength="80.6533" x="819.7524" y="648.5278">Dereference</text><path d="M759.7524,368.3633 L769.7524,368.3633 C784.7524,368.3633 784.7524,644.0273 799.7524,644.0273 L809.7524,644.0273" fill="none" style="stroke:#495057;stroke-width:1.1;"/><rect fill="#FFF3BF" height="35.1328" rx="3" ry="3" style="stroke:#181818;stroke-width:1.5;" width="87.0947" x="809.7524" y="681.5938"/><text fill="#000000" font-family="'DejaVu Sans'" font-size="13" lengthAdjust="spacing" textLength="67.0947" x="819.7524" y="703.6606">AddressOf</text><path d="M759.7524,368.3633 L769.7524,368.3633 C784.7524,368.3633 784.7524,699.1602 799.7524,699.1602 L809.7524,699.1602" fill="none" style="stroke:#495057;stroke-width:1.1;"/><path d="M534.7109,699.1602 L544.7109,699.1602 C559.7109,699.1602 559.7109,368.3633 574.7109,368.3633 L584.7109,368.3633" fill="none" style="stroke:#495057;stroke-width:1.1;"/><rect fill="#C3FAE8" height="50.2656" rx="3" ry="3" style="stroke:#181818;stroke-width:1.5;" width="44.2671" x="584.7109" y="784.293"/><text fill="#000000" font-family="'DejaVu Sans'" font-size="13" lengthAdjust="spacing" textLength="24.2671" x="594.7109" y="806.3599">Call</text><text fill="#000000" font-family="'DejaVu Sans'" font-size="13" lengthAdjust="spacing" textLength="18.4146" x="594.7109" y="821.4927">(3)</text><rect fill="#C3FAE8" height="35.1328" rx="3" ry="3" style="stroke:#181818;stroke-width:1.5;" width="81.439" x="678.978" y="736.7266"/><text fill="#000000" font-family="'DejaVu Sans'" font-size="13" lengthAdjust="spacing" textLength="61.439" x="688.978" y="758.7935">StaticCall</text><path d="M628.978,809.4258 L638.978,809.4258 C653.978,809.4258 653.978,754.293 668.978,754.293 L678.978,754.293" fill="none" style="stroke:#495057;stroke-width:1.1;"/><rect fill="#C3FAE8" height="35.1328" rx="3" ry="3" style="stroke:#181818;stroke-width:1.5;" width="101.5991" x="678.978" y="791.8594"/><text fill="#000000" font-family="'DejaVu Sans'" font-size="13" lengthAdjust="spacing" textLength="81.5991" x="688.978" y="813.9263">DynamicCall</text><path d="M628.978,809.4258 L638.978,809.4258 C653.978,809.4258 653.978,809.4258 668.978,809.4258 L678.978,809.4258" fill="none" style="stroke:#495057;stroke-width:1.1;"/><rect fill="#C3FAE8" height="35.1328" rx="3" ry="3" style="stroke:#181818;stroke-width:1.5;" width="69.2261" x="678.978" y="846.9922"/><text fill="#000000" font-family="'DejaVu Sans'" font-size="13" lengthAdjust="spacing" textLength="49.2261" x="688.978" y="869.0591">CallSite</text><path d="M628.978,809.4258 L638.978,809.4258 C653.978,809.4258 653.978,864.5586 668.978,864.5586 L678.978,864.5586" fill="none" style="stroke:#495057;stroke-width:1.1;"/><path d="M534.7109,699.1602 L544.7109,699.1602 C559.7109,699.1602 559.7109,809.4258 574.7109,809.4258 L584.7109,809.4258" fill="none" style="stroke:#495057;stroke-width:1.1;"/><rect fill="#E9ECEF" height="50.2656" rx="3" ry="3" style="stroke:#181818;stroke-width:1.5;" width="51.8843" x="584.7109" y="977.2578"/><text fill="#000000" font-family="'DejaVu Sans'" font-size="13" lengthAdjust="spacing" textLength="31.8843" x="594.7109" y="999.3247">Type</text><text fill="#000000" font-family="'DejaVu Sans'" font-size="13" lengthAdjust="spacing" textLength="18.4146" x="594.7109" y="1014.4575">(4)</text><rect fill="#E9ECEF" height="35.1328" rx="3" ry="3" style="stroke:#181818;stroke-width:1.5;" width="66.6934" x="686.5952" y="902.125"/><text fill="#000000" font-family="'DejaVu Sans'" font-size="13" lengthAdjust="spacing" textLength="46.6934" x="696.5952" y="924.1919">TypeOf</text><path d="M636.5952,1002.3906 L646.5952,1002.3906 C661.5952,1002.3906 661.5952,919.6914 676.5952,919.6914 L686.5952,919.6914" fill="none" style="stroke:#495057;stroke-width:1.1;"/><rect fill="#E9ECEF" height="35.1328" rx="3" ry="3" style="stroke:#181818;stroke-width:1.5;" width="69.1372" x="686.5952" y="957.2578"/><text fill="#000000" font-family="'DejaVu Sans'" font-size="13" lengthAdjust="spacing" textLength="49.1372" x="696.5952" y="979.3247">Inherits</text><path d="M636.5952,1002.3906 L646.5952,1002.3906 C661.5952,1002.3906 661.5952,974.8242 676.5952,974.8242 L686.5952,974.8242" fill="none" style="stroke:#495057;stroke-width:1.1;"/><rect fill="#E9ECEF" height="35.1328" rx="3" ry="3" style="stroke:#181818;stroke-width:1.5;" width="97.1304" x="686.5952" y="1012.3906"/><text fill="#000000" font-family="'DejaVu Sans'" font-size="13" lengthAdjust="spacing" textLength="77.1304" x="696.5952" y="1034.4575">Implements</text><path d="M636.5952,1002.3906 L646.5952,1002.3906 C661.5952,1002.3906 661.5952,1029.957 676.5952,1029.957 L686.5952,1029.957" fill="none" style="stroke:#495057;stroke-width:1.1;"/><rect fill="#E9ECEF" height="35.1328" rx="3" ry="3" style="stroke:#181818;stroke-width:1.5;" width="125.7075" x="686.5952" y="1067.5234"/><text fill="#000000" font-family="'DejaVu Sans'" font-size="13" lengthAdjust="spacing" textLength="105.7075" x="696.5952" y="1089.5903">GenericInstance</text><path d="M636.5952,1002.3906 L646.5952,1002.3906 C661.5952,1002.3906 661.5952,1085.0898 676.5952,1085.0898 L686.5952,1085.0898" fill="none" style="stroke:#495057;stroke-width:1.1;"/><path d="M534.7109,699.1602 L544.7109,699.1602 C559.7109,699.1602 559.7109,1002.3906 574.7109,1002.3906 L584.7109,1002.3906" fill="none" style="stroke:#495057;stroke-width:1.1;"/><rect fill="#F1F3F5" height="50.2656" rx="3" ry="3" style="stroke:#181818;stroke-width:1.5;" width="86.333" x="584.7109" y="1170.2227"/><text fill="#000000" font-family="'DejaVu Sans'" font-size="13" lengthAdjust="spacing" textLength="66.333" x="594.7109" y="1192.2896">Reference</text><text fill="#000000" font-family="'DejaVu Sans'" font-size="13" lengthAdjust="spacing" textLength="18.4146" x="594.7109" y="1207.4224">(3)</text><rect fill="#F1F3F5" height="35.1328" rx="3" ry="3" style="stroke:#181818;stroke-width:1.5;" width="86.333" x="721.0439" y="1122.6563"/><text fill="#000000" font-family="'DejaVu Sans'" font-size="13" lengthAdjust="spacing" textLength="66.333" x="731.0439" y="1144.7231">Reference</text><path d="M671.0439,1195.3555 L681.0439,1195.3555 C696.0439,1195.3555 696.0439,1140.2227 711.0439,1140.2227 L721.0439,1140.2227" fill="none" style="stroke:#495057;stroke-width:1.1;"/><rect fill="#F1F3F5" height="35.1328" rx="3" ry="3" style="stroke:#181818;stroke-width:1.5;" width="82.9497" x="721.0439" y="1177.7891"/><text fill="#000000" font-family="'DejaVu Sans'" font-size="13" lengthAdjust="spacing" textLength="62.9497" x="731.0439" y="1199.856">Definition</text><path d="M671.0439,1195.3555 L681.0439,1195.3555 C696.0439,1195.3555 696.0439,1195.3555 711.0439,1195.3555 L721.0439,1195.3555" fill="none" style="stroke:#495057;stroke-width:1.1;"/><rect fill="#F1F3F5" height="35.1328" rx="3" ry="3" style="stroke:#181818;stroke-width:1.5;" width="94.9468" x="721.0439" y="1232.9219"/><text fill="#000000" font-family="'DejaVu Sans'" font-size="13" lengthAdjust="spacing" textLength="74.9468" x="731.0439" y="1254.9888">Declaration</text><path d="M671.0439,1195.3555 L681.0439,1195.3555 C696.0439,1195.3555 696.0439,1250.4883 711.0439,1250.4883 L721.0439,1250.4883" fill="none" style="stroke:#495057;stroke-width:1.1;"/><path d="M534.7109,699.1602 L544.7109,699.1602 C559.7109,699.1602 559.7109,1195.3555 574.7109,1195.3555 L584.7109,1195.3555" fill="none" style="stroke:#495057;stroke-width:1.1;"/><rect fill="#FFE8CC" height="50.2656" rx="3" ry="3" style="stroke:#181818;stroke-width:1.5;" width="63.145" x="584.7109" y="1308.0547"/><text fill="#000000" font-family="'DejaVu Sans'" font-size="13" lengthAdjust="spacing" textLength="43.145" x="594.7109" y="1330.1216">Import</text><text fill="#000000" font-family="'DejaVu Sans'" font-size="13" lengthAdjust="spacing" textLength="18.4146" x="594.7109" y="1345.2544">(2)</text><rect fill="#FFE8CC" height="35.1328" rx="3" ry="3" style="stroke:#181818;stroke-width:1.5;" width="69.918" x="697.856" y="1288.0547"/><text fill="#000000" font-family="'DejaVu Sans'" font-size="13" lengthAdjust="spacing" textLength="49.918" x="707.856" y="1310.1216">Imports</text><path d="M647.856,1333.1875 L657.856,1333.1875 C672.856,1333.1875 672.856,1305.6211 687.856,1305.6211 L697.856,1305.6211" fill="none" style="stroke:#495057;stroke-width:1.1;"/><rect fill="#FFE8CC" height="35.1328" rx="3" ry="3" style="stroke:#181818;stroke-width:1.5;" width="69.3276" x="697.856" y="1343.1875"/><text fill="#000000" font-family="'DejaVu Sans'" font-size="13" lengthAdjust="spacing" textLength="49.3276" x="707.856" y="1365.2544">Exports</text><path d="M647.856,1333.1875 L657.856,1333.1875 C672.856,1333.1875 672.856,1360.7539 687.856,1360.7539 L697.856,1360.7539" fill="none" style="stroke:#495057;stroke-width:1.1;"/><path d="M534.7109,699.1602 L544.7109,699.1602 C559.7109,699.1602 559.7109,1333.1875 574.7109,1333.1875 L584.7109,1333.1875" fill="none" style="stroke:#495057;stroke-width:1.1;"/><rect fill="#DBE4FF" height="50.2656" rx="3" ry="3" style="stroke:#181818;stroke-width:1.5;" width="45.0859" x="332.7002" y="177.832"/><text fill="#000000" font-family="'DejaVu Sans'" font-size="13" lengthAdjust="spacing" textLength="25.0859" x="342.7002" y="199.8989">AST</text><text fill="#000000" font-family="'DejaVu Sans'" font-size="13" lengthAdjust="spacing" textLength="18.4146" x="342.7002" y="215.0317">(4)</text><rect fill="#DBE4FF" height="35.1328" rx="3" ry="3" style="stroke:#181818;stroke-width:1.5;" width="73.5552" x="209.145" y="102.6992"/><text fill="#000000" font-family="'DejaVu Sans'" font-size="13" lengthAdjust="spacing" textLength="53.5552" x="219.145" y="124.7661">AstChild</text><path d="M332.7002,202.9648 L322.7002,202.9648 C307.7002,202.9648 307.7002,120.2656 292.7002,120.2656 L282.7002,120.2656" fill="none" style="stroke:#495057;stroke-width:1.1;"/><rect fill="#DBE4FF" height="35.1328" rx="3" ry="3" style="stroke:#181818;stroke-width:1.5;" width="83.248" x="199.4521" y="157.832"/><text fill="#000000" font-family="'DejaVu Sans'" font-size="13" lengthAdjust="spacing" textLength="63.248" x="209.4521" y="179.8989">AstParent</text><path d="M332.7002,202.9648 L322.7002,202.9648 C307.7002,202.9648 307.7002,175.3984 292.7002,175.3984 L282.7002,175.3984" fill="none" style="stroke:#495057;stroke-width:1.1;"/><rect fill="#DBE4FF" height="35.1328" rx="3" ry="3" style="stroke:#181818;stroke-width:1.5;" width="115.1069" x="167.5933" y="212.9648"/><text fill="#000000" font-family="'DejaVu Sans'" font-size="13" lengthAdjust="spacing" textLength="95.1069" x="177.5933" y="235.0317">AstNextSibling</text><path d="M332.7002,202.9648 L322.7002,202.9648 C307.7002,202.9648 307.7002,230.5313 292.7002,230.5313 L282.7002,230.5313" fill="none" style="stroke:#495057;stroke-width:1.1;"/><rect fill="#DBE4FF" height="35.1328" rx="3" ry="3" style="stroke:#181818;stroke-width:1.5;" width="113.4692" x="169.231" y="268.0977"/><text fill="#000000" font-family="'DejaVu Sans'" font-size="13" lengthAdjust="spacing" textLength="93.4692" x="179.231" y="290.1646">AstPrevSibling</text><path d="M332.7002,202.9648 L322.7002,202.9648 C307.7002,202.9648 307.7002,285.6641 292.7002,285.6641 L282.7002,285.6641" fill="none" style="stroke:#495057;stroke-width:1.1;"/><path d="M427.7861,699.1602 L417.7861,699.1602 C402.7861,699.1602 402.7861,202.9648 387.7861,202.9648 L377.7861,202.9648" fill="none" style="stroke:#495057;stroke-width:1.1;"/><rect fill="#D3F9D8" height="50.2656" rx="3" ry="3" style="stroke:#181818;stroke-width:1.5;" width="190.3457" x="187.4404" y="674.0273"/><text fill="#000000" font-family="'DejaVu Sans'" font-size="13" lengthAdjust="spacing" textLength="170.3457" x="197.4404" y="696.0942">ControlFlow(CfgEdgeKind)</text><text fill="#000000" font-family="'DejaVu Sans'" font-size="13" lengthAdjust="spacing" textLength="26.6855" x="197.4404" y="711.2271">(14)</text><rect fill="#D3F9D8" height="35.1328" rx="3" ry="3" style="stroke:#181818;stroke-width:1.5;" width="89.2656" x="48.1748" y="323.2305"/><text fill="#000000" font-family="'DejaVu Sans'" font-size="13" lengthAdjust="spacing" textLength="69.2656" x="58.1748" y="345.2974">Sequential</text><path d="M187.4404,699.1602 L177.4404,699.1602 C162.4404,699.1602 162.4404,340.7969 147.4404,340.7969 L137.4404,340.7969" fill="none" style="stroke:#495057;stroke-width:1.1;"/><rect fill="#D3F9D8" height="35.1328" rx="3" ry="3" style="stroke:#181818;stroke-width:1.5;" width="123.1367" x="14.3037" y="378.3633"/><text fill="#000000" font-family="'DejaVu Sans'" font-size="13" lengthAdjust="spacing" textLength="103.1367" x="24.3037" y="400.4302">ConditionalTrue</text><path d="M187.4404,699.1602 L177.4404,699.1602 C162.4404,699.1602 162.4404,395.9297 147.4404,395.9297 L137.4404,395.9297" fill="none" style="stroke:#495057;stroke-width:1.1;"/><rect fill="#D3F9D8" height="35.1328" rx="3" ry="3" style="stroke:#181818;stroke-width:1.5;" width="127.4404" x="10" y="433.4961"/><text fill="#000000" font-family="'DejaVu Sans'" font-size="13" lengthAdjust="spacing" textLength="107.4404" x="20" y="455.563">ConditionalFalse</text><path d="M187.4404,699.1602 L177.4404,699.1602 C162.4404,699.1602 162.4404,451.0625 147.4404,451.0625 L137.4404,451.0625" fill="none" style="stroke:#495057;stroke-width:1.1;"/><rect fill="#D3F9D8" height="35.1328" rx="3" ry="3" style="stroke:#181818;stroke-width:1.5;" width="82.9624" x="54.478" y="488.6289"/><text fill="#000000" font-family="'DejaVu Sans'" font-size="13" lengthAdjust="spacing" textLength="62.9624" x="64.478" y="510.6958">LoopBack</text><path d="M187.4404,699.1602 L177.4404,699.1602 C162.4404,699.1602 162.4404,506.1953 147.4404,506.1953 L137.4404,506.1953" fill="none" style="stroke:#495057;stroke-width:1.1;"/><rect fill="#D3F9D8" height="35.1328" rx="3" ry="3" style="stroke:#181818;stroke-width:1.5;" width="76.0181" x="61.4224" y="543.7617"/><text fill="#000000" font-family="'DejaVu Sans'" font-size="13" lengthAdjust="spacing" textLength="56.0181" x="71.4224" y="565.8286">LoopExit</text><path d="M187.4404,699.1602 L177.4404,699.1602 C162.4404,699.1602 162.4404,561.3281 147.4404,561.3281 L137.4404,561.3281" fill="none" style="stroke:#495057;stroke-width:1.1;"/><rect fill="#D3F9D8" height="35.1328" rx="3" ry="3" style="stroke:#181818;stroke-width:1.5;" width="57.7559" x="79.6846" y="598.8945"/><text fill="#000000" font-family="'DejaVu Sans'" font-size="13" lengthAdjust="spacing" textLength="37.7559" x="89.6846" y="620.9614">Break</text><path d="M187.4404,699.1602 L177.4404,699.1602 C162.4404,699.1602 162.4404,616.4609 147.4404,616.4609 L137.4404,616.4609" fill="none" style="stroke:#495057;stroke-width:1.1;"/><rect fill="#D3F9D8" height="35.1328" rx="3" ry="3" style="stroke:#181818;stroke-width:1.5;" width="78.4556" x="58.9849" y="654.0273"/><text fill="#000000" font-family="'DejaVu Sans'" font-size="13" lengthAdjust="spacing" textLength="58.4556" x="68.9849" y="676.0942">Continue</text><path d="M187.4404,699.1602 L177.4404,699.1602 C162.4404,699.1602 162.4404,671.5938 147.4404,671.5938 L137.4404,671.5938" fill="none" style="stroke:#495057;stroke-width:1.1;"/><rect fill="#D3F9D8" height="35.1328" rx="3" ry="3" style="stroke:#181818;stroke-width:1.5;" width="63.9512" x="73.4893" y="709.1602"/><text fill="#000000" font-family="'DejaVu Sans'" font-size="13" lengthAdjust="spacing" textLength="43.9512" x="83.4893" y="731.2271">Return</text><path d="M187.4404,699.1602 L177.4404,699.1602 C162.4404,699.1602 162.4404,726.7266 147.4404,726.7266 L137.4404,726.7266" fill="none" style="stroke:#495057;stroke-width:1.1;"/><rect fill="#D3F9D8" height="35.1328" rx="3" ry="3" style="stroke:#181818;stroke-width:1.5;" width="60.1108" x="77.3296" y="764.293"/><text fill="#000000" font-family="'DejaVu Sans'" font-size="13" lengthAdjust="spacing" textLength="40.1108" x="87.3296" y="786.3599">Throw</text><path d="M187.4404,699.1602 L177.4404,699.1602 C162.4404,699.1602 162.4404,781.8594 147.4404,781.8594 L137.4404,781.8594" fill="none" style="stroke:#495057;stroke-width:1.1;"/><rect fill="#D3F9D8" height="35.1328" rx="3" ry="3" style="stroke:#181818;stroke-width:1.5;" width="57.5273" x="79.9131" y="819.4258"/><text fill="#000000" font-family="'DejaVu Sans'" font-size="13" lengthAdjust="spacing" textLength="37.5273" x="89.9131" y="841.4927">Catch</text><path d="M187.4404,699.1602 L177.4404,699.1602 C162.4404,699.1602 162.4404,836.9922 147.4404,836.9922 L137.4404,836.9922" fill="none" style="stroke:#495057;stroke-width:1.1;"/><rect fill="#D3F9D8" height="35.1328" rx="3" ry="3" style="stroke:#181818;stroke-width:1.5;" width="44.2671" x="93.1733" y="874.5586"/><text fill="#000000" font-family="'DejaVu Sans'" font-size="13" lengthAdjust="spacing" textLength="24.2671" x="103.1733" y="896.6255">Call</text><path d="M187.4404,699.1602 L177.4404,699.1602 C162.4404,699.1602 162.4404,892.125 147.4404,892.125 L137.4404,892.125" fill="none" style="stroke:#495057;stroke-width:1.1;"/><rect fill="#D3F9D8" height="35.1328" rx="3" ry="3" style="stroke:#181818;stroke-width:1.5;" width="88.2183" x="49.2222" y="929.6914"/><text fill="#000000" font-family="'DejaVu Sans'" font-size="13" lengthAdjust="spacing" textLength="68.2183" x="59.2222" y="951.7583">CallReturn</text><path d="M187.4404,699.1602 L177.4404,699.1602 C162.4404,699.1602 162.4404,947.2578 147.4404,947.2578 L137.4404,947.2578" fill="none" style="stroke:#495057;stroke-width:1.1;"/><rect fill="#D3F9D8" height="35.1328" rx="3" ry="3" style="stroke:#181818;stroke-width:1.5;" width="51.8145" x="85.626" y="984.8242"/><text fill="#000000" font-family="'DejaVu Sans'" font-size="13" lengthAdjust="spacing" textLength="31.8145" x="95.626" y="1006.8911">Case</text><path d="M187.4404,699.1602 L177.4404,699.1602 C162.4404,699.1602 162.4404,1002.3906 147.4404,1002.3906 L137.4404,1002.3906" fill="none" style="stroke:#495057;stroke-width:1.1;"/><rect fill="#D3F9D8" height="35.1328" rx="3" ry="3" style="stroke:#181818;stroke-width:1.5;" width="99.314" x="38.1265" y="1039.957"/><text fill="#000000" font-family="'DejaVu Sans'" font-size="13" lengthAdjust="spacing" textLength="79.314" x="48.1265" y="1062.0239">DefaultCase</text><path d="M187.4404,699.1602 L177.4404,699.1602 C162.4404,699.1602 162.4404,1057.5234 147.4404,1057.5234 L137.4404,1057.5234" fill="none" style="stroke:#495057;stroke-width:1.1;"/><path d="M427.7861,699.1602 L417.7861,699.1602 C402.7861,699.1602 402.7861,699.1602 387.7861,699.1602 L377.7861,699.1602" fill="none" style="stroke:#495057;stroke-width:1.1;"/><rect fill="#E5DBFF" height="50.2656" rx="3" ry="3" style="stroke:#181818;stroke-width:1.5;" width="47.9233" x="329.8628" y="1115.0898"/><text fill="#000000" font-family="'DejaVu Sans'" font-size="13" lengthAdjust="spacing" textLength="27.9233" x="339.8628" y="1137.1567">PDG</text><text fill="#000000" font-family="'DejaVu Sans'" font-size="13" lengthAdjust="spacing" textLength="18.4146" x="339.8628" y="1152.2896">(2)</text><rect fill="#E5DBFF" height="35.1328" rx="3" ry="3" style="stroke:#181818;stroke-width:1.5;" width="149.4097" x="130.4531" y="1095.0898"/><text fill="#000000" font-family="'DejaVu Sans'" font-size="13" lengthAdjust="spacing" textLength="129.4097" x="140.4531" y="1117.1567">ControlDependence</text><path d="M329.8628,1140.2227 L319.8628,1140.2227 C304.8628,1140.2227 304.8628,1112.6563 289.8628,1112.6563 L279.8628,1112.6563" fill="none" style="stroke:#495057;stroke-width:1.1;"/><rect fill="#E5DBFF" height="35.1328" rx="3" ry="3" style="stroke:#181818;stroke-width:1.5;" width="133.1724" x="146.6904" y="1150.2227"/><text fill="#000000" font-family="'DejaVu Sans'" font-size="13" lengthAdjust="spacing" textLength="113.1724" x="156.6904" y="1172.2896">DataDependence</text><path d="M329.8628,1140.2227 L319.8628,1140.2227 C304.8628,1140.2227 304.8628,1167.7891 289.8628,1167.7891 L279.8628,1167.7891" fill="none" style="stroke:#495057;stroke-width:1.1;"/><path d="M427.7861,699.1602 L417.7861,699.1602 C402.7861,699.1602 402.7861,1140.2227 387.7861,1140.2227 L377.7861,1140.2227" fill="none" style="stroke:#495057;stroke-width:1.1;"/><rect fill="#FFE8CC" height="50.2656" rx="3" ry="3" style="stroke:#181818;stroke-width:1.5;" width="59.603" x="318.1831" y="1225.3555"/><text fill="#000000" font-family="'DejaVu Sans'" font-size="13" lengthAdjust="spacing" textLength="39.603" x="328.1831" y="1247.4224">Scope</text><text fill="#000000" font-family="'DejaVu Sans'" font-size="13" lengthAdjust="spacing" textLength="18.4146" x="328.1831" y="1262.5552">(2)</text><rect fill="#FFE8CC" height="35.1328" rx="3" ry="3" style="stroke:#181818;stroke-width:1.5;" width="121.645" x="146.5381" y="1205.3555"/><text fill="#000000" font-family="'DejaVu Sans'" font-size="13" lengthAdjust="spacing" textLength="101.645" x="156.5381" y="1227.4224">EnclosingScope</text><path d="M318.1831,1250.4883 L308.1831,1250.4883 C293.1831,1250.4883 293.1831,1222.9219 278.1831,1222.9219 L268.1831,1222.9219" fill="none" style="stroke:#495057;stroke-width:1.1;"/><rect fill="#FFE8CC" height="35.1328" rx="3" ry="3" style="stroke:#181818;stroke-width:1.5;" width="98.5078" x="169.6753" y="1260.4883"/><text fill="#000000" font-family="'DejaVu Sans'" font-size="13" lengthAdjust="spacing" textLength="78.5078" x="179.6753" y="1282.5552">ContainedIn</text><path d="M318.1831,1250.4883 L308.1831,1250.4883 C293.1831,1250.4883 293.1831,1278.0547 278.1831,1278.0547 L268.1831,1278.0547" fill="none" style="stroke:#495057;stroke-width:1.1;"/><path d="M427.7861,699.1602 L417.7861,699.1602 C402.7861,699.1602 402.7861,1250.4883 387.7861,1250.4883 L377.7861,1250.4883" fill="none" style="stroke:#495057;stroke-width:1.1;"/><g class="caption" data-source-line="2"><text fill="#000000" font-family="'DejaVu Sans'" font-size="14" lengthAdjust="spacing" textLength="921.3477" x="20.1362" y="1402.3154">CpgEdgeKind &#8212; typed edges overlaying AST + CFG + DFG + PDG + call/type/ref/scope/import on one node set (src/graph/edge.rs)</text></g></g></svg>