<svg xmlns="http://www.w3.org/2000/svg" xmlns:xlink="http://www.w3.org/1999/xlink" contentStyleType="text/css" data-diagram-type="CLASS" height="509px" preserveAspectRatio="none" style="width:859px;height:509px;background:#FFFFFF;" version="1.1" viewBox="0 0 859 509" width="859px" zoomAndPan="magnify"><?plantuml $version$?><defs/><g><g class="title" data-source-line="2"><text fill="#000000" font-family="'DejaVu Sans'" font-size="15" font-weight="700" lengthAdjust="spacing" textLength="479.7363" x="186.4096" y="23.9233">Decorator &#8212; Structural GoF pattern (detected structure)</text></g><!--class Component--><g class="entity" data-qualified-name="Component" data-source-line="4" id="ent0001"><rect fill="#E9ECEF" height="61.1328" rx="3" ry="3" style="stroke:#495057;stroke-width:0.5;" width="113.7954" x="115.85" y="333.1209"/><ellipse cx="129.85" cy="348.1209" fill="#B4A7E5" rx="10" ry="10" style="stroke:#181818;stroke-width:1;"/><path d="M127.0219,353.1209 L127.0219,351.8241 L128.8344,351.6053 L128.8344,345.3397 L127.0219,345.1366 L127.0219,343.8397 L132.475,343.8397 L132.475,345.1366 L130.6313,345.3397 L130.6313,351.6053 L132.475,351.8241 L132.475,353.1209 L127.0219,353.1209 Z " fill="#000000"/><text fill="#000000" font-family="'DejaVu Sans'" font-size="13" font-style="italic" font-weight="700" lengthAdjust="spacing" textLength="83.7954" x="142.85" y="352.6214">Component</text><line style="stroke:#495057;stroke-width:0.5;" x1="116.85" x2="228.6454" y1="363.1209" y2="363.1209"/><line style="stroke:#495057;stroke-width:0.5;" x1="116.85" x2="228.6454" y1="371.1209" y2="371.1209"/><g data-visibility-modifier="PUBLIC_METHOD"><ellipse cx="126.85" cy="384.1873" fill="#84BE84" rx="3" ry="3" style="stroke:#038048;stroke-width:1;"/></g><text fill="#000000" font-family="'DejaVu Sans'" font-size="13" lengthAdjust="spacing" textLength="72.5601" x="134.85" y="387.1878">operation()</text></g><!--class ConcreteComponent--><g class="entity" data-qualified-name="ConcreteComponent" data-source-line="7" id="ent0002"><rect fill="#E9ECEF" height="61.1328" rx="3" ry="3" style="stroke:#495057;stroke-width:0.5;" width="179.4873" x="7" y="175.1609"/><ellipse cx="21" cy="190.1609" fill="#ADD1B2" rx="10" ry="10" style="stroke:#181818;stroke-width:1;"/><path d="M20.8125,195.2859 Q19.4688,195.2859 18.6094,194.7234 Q17.75,194.1609 17.3281,193.1297 Q16.9063,192.0984 16.9063,190.7078 Q16.9063,189.1609 17.4063,188.0516 Q17.9063,186.9422 18.875,186.3484 Q19.8594,185.7547 21.2969,185.7547 Q21.9688,185.7547 22.4844,185.8953 Q23,186.0203 23.5313,186.2859 L22.9063,187.8328 Q22.4219,187.5828 22.0156,187.4891 Q21.6094,187.3953 21.2344,187.3953 Q20.3281,187.3953 19.7969,187.8016 Q19.2656,188.2078 19.0313,188.9422 Q18.8125,189.6609 18.8125,190.6297 Q18.8125,192.1766 19.3594,192.9109 Q19.9063,193.6453 21.125,193.6453 Q21.5781,193.6453 22.0469,193.5359 Q22.5313,193.4109 23.1719,193.1141 L23.1719,194.8172 Q22.6094,195.0516 22,195.1609 Q21.3906,195.2859 20.8125,195.2859 Z " fill="#000000"/><text fill="#000000" font-family="'DejaVu Sans'" font-size="13" font-weight="700" lengthAdjust="spacing" textLength="149.4873" x="34" y="194.6614">ConcreteComponent</text><line style="stroke:#495057;stroke-width:0.5;" x1="8" x2="185.4873" y1="205.1609" y2="205.1609"/><line style="stroke:#495057;stroke-width:0.5;" x1="8" x2="185.4873" y1="213.1609" y2="213.1609"/><g data-visibility-modifier="PUBLIC_METHOD"><ellipse cx="18" cy="226.2273" fill="#84BE84" rx="3" ry="3" style="stroke:#038048;stroke-width:1;"/></g><text fill="#000000" font-family="'DejaVu Sans'" font-size="13" lengthAdjust="spacing" textLength="72.5601" x="26" y="229.2278">operation()</text></g><!--class Decorator--><g class="entity" data-qualified-name="Decorator" data-source-line="10" id="ent0003"><rect fill="#FFE3E3" height="76.2656" rx="3" ry="3" style="stroke:#495057;stroke-width:0.5;" width="169.5615" x="221.96" y="167.5909"/><ellipse cx="266.2481" cy="182.5909" fill="#A9DCDF" rx="10" ry="10" style="stroke:#181818;stroke-width:1;"/><path d="M262.3731,186.8409 L264.9356,177.5128 L267.3418,177.5128 L269.92,186.8409 L268.0293,186.8409 L267.4668,184.5441 L264.7793,184.5441 L264.2168,186.8409 L262.3731,186.8409 Z M265.7481,180.6847 L265.17,182.9816 L267.0918,182.9816 L266.545,180.6847 Q266.4512,180.2472 266.3418,179.8253 Q266.2481,179.3878 266.1543,178.9503 Q266.0606,179.3878 265.9512,179.8253 Q265.8418,180.2472 265.7481,180.6847 Z " fill="#000000"/><text fill="#000000" font-family="'DejaVu Sans'" font-size="13" font-style="italic" font-weight="700" lengthAdjust="spacing" textLength="72.9854" x="285.2481" y="187.0914">Decorator</text><line style="stroke:#495057;stroke-width:0.5;" x1="222.96" x2="390.5215" y1="197.5909" y2="197.5909"/><g data-visibility-modifier="PRIVATE_FIELD"><rect fill="none" height="6" style="stroke:#C82930;stroke-width:1;" width="6" x="229.96" y="207.6573"/></g><text fill="#000000" font-family="'DejaVu Sans'" font-size="13" lengthAdjust="spacing" textLength="144.5615" x="240.96" y="213.6578">wrappee : Component</text><line style="stroke:#495057;stroke-width:0.5;" x1="222.96" x2="390.5215" y1="220.7238" y2="220.7238"/><g data-visibility-modifier="PUBLIC_METHOD"><ellipse cx="232.96" cy="233.7902" fill="#84BE84" rx="3" ry="3" style="stroke:#038048;stroke-width:1;"/></g><text fill="#000000" font-family="'DejaVu Sans'" font-size="13" lengthAdjust="spacing" textLength="72.5601" x="240.96" y="236.7906">operation()</text></g><!--class ConcreteDecorator--><g class="entity" data-qualified-name="ConcreteDecorator" data-source-line="14" id="ent0004"><rect fill="#E9ECEF" height="61.1328" rx="3" ry="3" style="stroke:#495057;stroke-width:0.5;" width="168.6772" x="222.41" y="45.4609"/><ellipse cx="236.41" cy="60.4609" fill="#ADD1B2" rx="10" ry="10" style="stroke:#181818;stroke-width:1;"/><path d="M236.2225,65.5859 Q234.8788,65.5859 234.0194,65.0234 Q233.16,64.4609 232.7381,63.4297 Q232.3163,62.3984 232.3163,61.0078 Q232.3163,59.4609 232.8163,58.3516 Q233.3163,57.2422 234.285,56.6484 Q235.2694,56.0547 236.7069,56.0547 Q237.3788,56.0547 237.8944,56.1953 Q238.41,56.3203 238.9413,56.5859 L238.3163,58.1328 Q237.8319,57.8828 237.4256,57.7891 Q237.0194,57.6953 236.6444,57.6953 Q235.7381,57.6953 235.2069,58.1016 Q234.6756,58.5078 234.4413,59.2422 Q234.2225,59.9609 234.2225,60.9297 Q234.2225,62.4766 234.7694,63.2109 Q235.3163,63.9453 236.535,63.9453 Q236.9881,63.9453 237.4569,63.8359 Q237.9413,63.7109 238.5819,63.4141 L238.5819,65.1172 Q238.0194,65.3516 237.41,65.4609 Q236.8006,65.5859 236.2225,65.5859 Z " fill="#000000"/><text fill="#000000" font-family="'DejaVu Sans'" font-size="13" font-weight="700" lengthAdjust="spacing" textLength="138.6772" x="249.41" y="64.9614">ConcreteDecorator</text><line style="stroke:#495057;stroke-width:0.5;" x1="223.41" x2="390.0872" y1="75.4609" y2="75.4609"/><line style="stroke:#495057;stroke-width:0.5;" x1="223.41" x2="390.0872" y1="83.4609" y2="83.4609"/><g data-visibility-modifier="PUBLIC_METHOD"><ellipse cx="233.41" cy="96.5273" fill="#84BE84" rx="3" ry="3" style="stroke:#038048;stroke-width:1;"/></g><text fill="#000000" font-family="'DejaVu Sans'" font-size="13" lengthAdjust="spacing" textLength="72.5601" x="241.41" y="99.5278">operation()</text></g><g class="entity" data-qualified-name="GMN9" data-source-line="24" id="ent0010"><path d="M264.93,323.8609 L264.93,403.525 A3,3 0 0 0 267.93,406.525 L841.5555,406.525 A3,3 0 0 0 844.5555,403.525 L844.5555,330.8609 L834.5555,320.8609 L491.68,320.8609 L366.46,244.2809 L483.68,320.8609 L267.93,320.8609 A3,3 0 0 0 264.93,323.8609" fill="#FFF9DB" style="stroke:#F59F00;stroke-width:0.5;"/><path d="M834.5555,320.8609 L834.5555,329.3609 A1.5,1.5 0 0 0 836.0555,330.8609 L844.5555,330.8609 L834.5555,320.8609" fill="#FFF9DB" style="stroke:#F59F00;stroke-width:0.5;"/><text fill="#000000" font-family="'DejaVu Sans'" font-size="13" lengthAdjust="spacing" textLength="86.3662" x="270.93" y="337.9278">GofCategory:</text><text fill="#000000" font-family="'DejaVu Sans'" font-size="13" font-weight="700" lengthAdjust="spacing" textLength="74.0581" x="361.4285" y="337.9278">Structural</text><text fill="#000000" font-family="'DejaVu Sans'" font-size="13" lengthAdjust="spacing" textLength="284.5972" x="443.7513" y="337.9278">(relaxed-VF2 template, min-confidence 0.7)</text><text fill="#000000" font-family="'DejaVu Sans'" font-size="13" lengthAdjust="spacing" textLength="145.2852" x="270.93" y="353.0606">Detection signature: a</text><text fill="#000000" font-family="'DejaVu Sans'" font-size="13" font-weight="700" lengthAdjust="spacing" textLength="72.9854" x="420.3475" y="353.0606">Decorator</text><text fill="#000000" font-family="'DejaVu Sans'" font-size="13" lengthAdjust="spacing" textLength="148.4399" x="497.4652" y="353.0606">that BOTH implements</text><text fill="#000000" font-family="'DejaVu Sans'" font-size="13" font-weight="700" lengthAdjust="spacing" textLength="83.7954" x="650.0374" y="353.0606">Component</text><text fill="#000000" font-family="'DejaVu Sans'" font-size="13" lengthAdjust="spacing" textLength="161.1733" x="270.93" y="368.1935">and wraps a same-typed</text><text fill="#000000" font-family="'DejaVu Sans'" font-size="13" font-weight="700" lengthAdjust="spacing" textLength="63.4385" x="436.2357" y="368.1935">wrappee</text><text fill="#000000" font-family="'DejaVu Sans'" font-size="13" lengthAdjust="spacing" textLength="325.749" x="503.8065" y="368.1935">Field (Implements + Field &#9472;TypeOf&#8594; Component).</text><text fill="#000000" font-family="'DejaVu Sans'" font-size="13" lengthAdjust="spacing" textLength="504.4165" x="270.93" y="383.3263">Template = Component(Trait); Decorator(Class) &#9472;AstChild&#8594; {wrappee(Field),</text><text fill="#000000" font-family="'DejaVu Sans'" font-size="13" lengthAdjust="spacing" textLength="541.8423" x="270.93" y="398.4591">operation}; Decorator &#9472;Implements&#8594; Component; wrappee &#9472;TypeOf&#8594; Component.</text></g><!--link ConcreteComponent to Component--><g class="link" data-entity-1="ent0002" data-entity-2="ent0001" data-link-type="extension" data-source-line="18" id="lnk5"><path codeLine="18" d="M111.22,236.4309 C124.7,264.0909 136.8064,288.9392 150.3064,316.6492" fill="none" id="ConcreteComponent-to-Component" style="stroke:#495057;stroke-width:1.1;stroke-dasharray:7,7;"/><polygon fill="none" points="158.19,332.8309,155.7003,314.0213,144.9125,319.277,158.19,332.8309" style="stroke:#495057;stroke-width:1.1;stroke-linejoin:miter;stroke-miterlimit:10;"/></g><!--link Decorator to Component--><g class="link" data-entity-1="ent0003" data-entity-2="ent0001" data-link-type="extension" data-source-line="19" id="lnk6"><path codeLine="19" d="M271.23,244.3209 C262.45,253.8509 253.15,264.1409 244.74,273.8609 C228.11,293.0709 221.315,301.1938 207.475,318.5938" fill="none" id="Decorator-to-Component" style="stroke:#495057;stroke-width:1.1;stroke-dasharray:7,7;"/><polygon fill="none" points="196.27,332.6809,212.1707,322.3288,202.7792,314.8588,196.27,332.6809" style="stroke:#495057;stroke-width:1.1;stroke-linejoin:miter;stroke-miterlimit:10;"/></g><!--reverse link Decorator to Component--><g class="link" data-entity-1="ent0003" data-entity-2="ent0001" data-link-type="aggregation" data-source-line="20" id="lnk7"><path codeLine="20" d="M276.8589,253.9757 C266.8389,269.0557 261.21,276.3109 248.74,290.8609 C236.22,305.4709 221.04,320.3009 207.55,332.6509" fill="none" id="Decorator-backto-Component" style="stroke:#495057;stroke-width:1.1;"/><polygon fill="none" points="283.5,243.9809,276.8479,246.7646,276.8589,253.9757,283.511,251.192,283.5,243.9809" style="stroke:#495057;stroke-width:1.1;stroke-linejoin:miter;stroke-miterlimit:10;"/><text fill="#000000" font-family="'DejaVu Sans'" font-size="13" lengthAdjust="spacing" textLength="56.4434" x="262.02" y="286.9278">wrappee</text></g><!--link ConcreteDecorator to Decorator--><g class="link" data-entity-1="ent0004" data-entity-2="ent0003" data-link-type="extension" data-source-line="21" id="lnk8"><path codeLine="21" d="M306.74,106.9609 C306.74,124.9509 306.74,130.0009 306.74,149.1909" fill="none" id="ConcreteDecorator-to-Decorator" style="stroke:#495057;stroke-width:1.1;"/><polygon fill="none" points="306.74,167.1909,312.74,149.1909,300.74,149.1909,306.74,167.1909" style="stroke:#495057;stroke-width:1.1;stroke-linejoin:miter;stroke-miterlimit:10;"/></g><g class="legend" data-source-line="31"><rect fill="#F8F9FA" height="62.8906" rx="3" ry="3" style="stroke:#CED4DA;stroke-width:1;" width="353.499" x="487.0565" y="427.525"/><text fill="#000000" font-family="'DejaVu Sans'" font-size="14" font-weight="700" lengthAdjust="spacing" textLength="49.2051" x="496.9305" y="447.5201">colour</text><text fill="#000000" font-family="'DejaVu Sans'" font-size="14" font-weight="700" lengthAdjust="spacing" textLength="62.3916" x="555.8836" y="447.5201">concept</text><rect fill="#E9ECEF" height="16.2969" style="stroke:none;stroke-width:1;" width="58.9531" x="492.0565" y="450.8219"/><text fill="#000000" font-family="'DejaVu Sans'" font-size="14" lengthAdjust="spacing" textLength="4.4502" x="492.0565" y="463.817">&#160;</text><text fill="#000000" font-family="'DejaVu Sans'" font-size="14" lengthAdjust="spacing" textLength="147.9365" x="555.4598" y="463.817">type / class structure</text><rect fill="#FFE3E3" height="16.2969" style="stroke:none;stroke-width:1;" width="58.9531" x="492.0565" y="467.1188"/><text fill="#000000" font-family="'DejaVu Sans'" font-size="14" lengthAdjust="spacing" textLength="4.4502" x="492.0565" y="480.1139">&#160;</text><text fill="#000000" font-family="'DejaVu Sans'" font-size="14" lengthAdjust="spacing" textLength="275.6455" x="555.4598" y="480.1139">varying "hook" class (VF2 match focus)</text><line style="stroke:#000000;stroke-width:1;" x1="492.0565" x2="835.5555" y1="434.525" y2="434.525"/><line style="stroke:#000000;stroke-width:1;" x1="492.0565" x2="835.5555" y1="450.8219" y2="450.8219"/><line style="stroke:#000000;stroke-width:1;" x1="492.0565" x2="835.5555" y1="467.1188" y2="467.1188"/><line style="stroke:#000000;stroke-width:1;" x1="492.0565" x2="835.5555" y1="483.4156" y2="483.4156"/><line style="stroke:#000000;stroke-width:1;" x1="492.0565" x2="492.0565" y1="434.525" y2="483.4156"/><line style="stroke:#000000;stroke-width:1;" x1="551.0096" x2="551.0096" y1="434.525" y2="483.4156"/><line style="stroke:#000000;stroke-width:1;" x1="835.5555" x2="835.5555" y1="434.525" y2="483.4156"/></g></g></svg>