<svg xmlns="http://www.w3.org/2000/svg" xmlns:xlink="http://www.w3.org/1999/xlink" contentStyleType="text/css" data-diagram-type="ACTIVITY" height="1075px" preserveAspectRatio="none" style="width:645px;height:1075px;background:#FFFFFF;" version="1.1" viewBox="0 0 645 1075" width="645px" zoomAndPan="magnify"><?plantuml $version$?><defs/><g><g class="title" data-source-line="2"><text fill="#000000" font-family="'DejaVu Sans'" font-size="15" font-weight="700" lengthAdjust="spacing" textLength="603.7866" x="20" y="33.9233">DfgExtractor::visit_reaching &#8212; AST-ordered reaching-definitions sweep</text></g><ellipse cx="328.9254" cy="63.4609" fill="#2F9E44" rx="10" ry="10" style="stroke:#222222;stroke-width:1;"/><rect fill="#FFF3BF" height="65.3984" rx="3" ry="3" style="stroke:#495057;stroke-width:0.5;" width="313.2363" x="172.3073" y="93.4609"/><text fill="#000000" font-family="'DejaVu Sans'" font-size="13" lengthAdjust="spacing" textLength="203.8105" x="182.3073" y="115.5278">initialize ReachingEnv = empty</text><text fill="#000000" font-family="'DejaVu Sans'" font-size="13" lengthAdjust="spacing" textLength="290.6084" x="182.3073" y="130.6606">a map from name to its reaching definitions,</text><text fill="#000000" font-family="'DejaVu Sans'" font-size="13" lengthAdjust="spacing" textLength="293.2363" x="182.3073" y="145.7935">binding parameters before the function body</text><rect fill="#DBE4FF" height="35.1328" rx="3" ry="3" style="stroke:#495057;stroke-width:0.5;" width="322.6943" x="167.5782" y="222.8594"/><text fill="#000000" font-family="'DejaVu Sans'" font-size="13" lengthAdjust="spacing" textLength="302.6943" x="177.5782" y="244.9263">visit next AST node in source (AST child) order</text><polygon fill="#FFF3BF" points="267.8832,327.5586,389.9677,327.5586,401.9677,339.5586,389.9677,351.5586,267.8832,351.5586,255.8832,339.5586,267.8832,327.5586" style="stroke:#F08C00;stroke-width:0.5;stroke-linejoin:miter;stroke-miterlimit:10;"/><text fill="#000000" font-family="'DejaVu Sans'" font-size="13" lengthAdjust="spacing" textLength="122.0845" x="267.8832" y="344.0591">enclosing context?</text><text fill="#000000" font-family="'DejaVu Sans'" font-size="13" lengthAdjust="spacing" textLength="78.5332" x="177.35" y="336.4927">straight-line</text><text fill="#000000" font-family="'DejaVu Sans'" font-size="13" lengthAdjust="spacing" textLength="117.2158" x="401.9677" y="336.4927">conditional region</text><rect fill="#FFF3BF" height="35.1328" rx="3" ry="3" style="stroke:#495057;stroke-width:0.5;" width="339.8901" x="16.5674" y="361.5586"/><text fill="#000000" font-family="'DejaVu Sans'" font-size="13" lengthAdjust="spacing" textLength="319.8901" x="26.5674" y="383.6255">strong update (kill + gen) in straight-line context</text><rect fill="#FFF3BF" height="35.1328" rx="3" ry="3" style="stroke:#495057;stroke-width:0.5;" width="189.7617" x="376.4575" y="361.5586"/><text fill="#000000" font-family="'DejaVu Sans'" font-size="13" lengthAdjust="spacing" textLength="169.7617" x="386.4575" y="383.6255">weak update (add, no kill)</text><polygon fill="#FFF3BF" points="328.9254,402.6914,340.9254,414.6914,328.9254,426.6914,316.9254,414.6914,328.9254,402.6914" style="stroke:#F08C00;stroke-width:0.5;stroke-linejoin:miter;stroke-miterlimit:10;"/><polygon fill="#FFF3BF" points="263.2843,277.9922,394.5665,277.9922,406.5665,289.9922,394.5665,301.9922,263.2843,301.9922,251.2843,289.9922,263.2843,277.9922" style="stroke:#F08C00;stroke-width:0.5;stroke-linejoin:miter;stroke-miterlimit:10;"/><text fill="#000000" font-family="'DejaVu Sans'" font-size="13" lengthAdjust="spacing" textLength="22.4644" x="332.9254" y="314.0591">yes</text><text fill="#000000" font-family="'DejaVu Sans'" font-size="13" lengthAdjust="spacing" textLength="131.2822" x="263.2843" y="294.4927">node is a definition?</text><text fill="#000000" font-family="'DejaVu Sans'" font-size="13" lengthAdjust="spacing" textLength="16.1929" x="406.5665" y="286.9263">no</text><polygon fill="#FFF3BF" points="328.9254,446.6914,340.9254,458.6914,328.9254,470.6914,316.9254,458.6914,328.9254,446.6914" style="stroke:#F08C00;stroke-width:0.5;stroke-linejoin:miter;stroke-miterlimit:10;"/><rect fill="#FFF3BF" height="50.2656" rx="3" ry="3" style="stroke:#495057;stroke-width:0.5;" width="299.7222" x="179.0643" y="540.2578"/><text fill="#000000" font-family="'DejaVu Sans'" font-size="13" lengthAdjust="spacing" textLength="279.7222" x="189.0643" y="562.3247">link use to current ReachingEnv definitions</text><text fill="#000000" font-family="'DejaVu Sans'" font-size="13" lengthAdjust="spacing" textLength="194.6191" x="189.0643" y="577.4575">(incl. nested-expression uses)</text><polygon fill="#FFF3BF" points="282.3749,490.6914,375.476,490.6914,387.476,502.6914,375.476,514.6914,282.3749,514.6914,270.3749,502.6914,282.3749,490.6914" style="stroke:#F08C00;stroke-width:0.5;stroke-linejoin:miter;stroke-miterlimit:10;"/><text fill="#000000" font-family="'DejaVu Sans'" font-size="13" lengthAdjust="spacing" textLength="22.4644" x="332.9254" y="526.7583">yes</text><text fill="#000000" font-family="'DejaVu Sans'" font-size="13" lengthAdjust="spacing" textLength="93.1011" x="282.3749" y="507.1919">node is a use?</text><text fill="#000000" font-family="'DejaVu Sans'" font-size="13" lengthAdjust="spacing" textLength="16.1929" x="387.476" y="499.6255">no</text><polygon fill="#FFF3BF" points="328.9254,610.5234,340.9254,622.5234,328.9254,634.5234,316.9254,622.5234,328.9254,610.5234" style="stroke:#F08C00;stroke-width:0.5;stroke-linejoin:miter;stroke-miterlimit:10;"/><rect fill="#FFF3BF" height="35.1328" rx="3" ry="3" style="stroke:#495057;stroke-width:0.5;" width="308.1328" x="174.859" y="704.0898"/><text fill="#000000" font-family="'DejaVu Sans'" font-size="13" lengthAdjust="spacing" textLength="288.1328" x="184.859" y="726.1567">sweep loop body twice for loop-carried deps</text><polygon fill="#FFF3BF" points="196.0817,654.5234,461.7692,654.5234,473.7692,666.5234,461.7692,678.5234,196.0817,678.5234,184.0817,666.5234,196.0817,654.5234" style="stroke:#F08C00;stroke-width:0.5;stroke-linejoin:miter;stroke-miterlimit:10;"/><text fill="#000000" font-family="'DejaVu Sans'" font-size="13" lengthAdjust="spacing" textLength="22.4644" x="332.9254" y="690.5903">yes</text><text fill="#000000" font-family="'DejaVu Sans'" font-size="13" lengthAdjust="spacing" textLength="265.6875" x="196.0817" y="671.0239">node is a loop region: While / For / Loop?</text><text fill="#000000" font-family="'DejaVu Sans'" font-size="13" lengthAdjust="spacing" textLength="16.1929" x="473.7692" y="663.4575">no</text><polygon fill="#FFF3BF" points="328.9254,759.2227,340.9254,771.2227,328.9254,783.2227,316.9254,771.2227,328.9254,759.2227" style="stroke:#F08C00;stroke-width:0.5;stroke-linejoin:miter;stroke-miterlimit:10;"/><polygon fill="#FFF3BF" points="328.9254,178.8594,340.9254,190.8594,328.9254,202.8594,316.9254,190.8594,328.9254,178.8594" style="stroke:#F08C00;stroke-width:0.5;stroke-linejoin:miter;stroke-miterlimit:10;"/><polygon fill="#FFF3BF" points="220.9137,803.2227,436.9371,803.2227,448.9371,815.2227,436.9371,827.2227,220.9137,827.2227,208.9137,815.2227,220.9137,803.2227" style="stroke:#F08C00;stroke-width:0.5;stroke-linejoin:miter;stroke-miterlimit:10;"/><text fill="#000000" font-family="'DejaVu Sans'" font-size="13" lengthAdjust="spacing" textLength="16.1929" x="332.9254" y="839.2896">no</text><text fill="#000000" font-family="'DejaVu Sans'" font-size="13" lengthAdjust="spacing" textLength="216.0234" x="220.9137" y="819.7231">more AST nodes in source order?</text><text fill="#000000" font-family="'DejaVu Sans'" font-size="13" lengthAdjust="spacing" textLength="22.4644" x="448.9371" y="812.1567">yes</text><path d="M359.9254,850.7896 L359.9254,904.7544 L339.9254,908.7544 L359.9254,912.7544 L359.9254,966.7192 A0,0 0 0 0 359.9254,966.7192 L613.9415,966.7192 A0,0 0 0 0 613.9415,966.7192 L613.9415,860.7896 L603.9415,850.7896 L359.9254,850.7896 A0,0 0 0 0 359.9254,850.7896" fill="#FFF9DB" style="stroke:#F59F00;stroke-width:0.5;"/><path d="M603.9415,850.7896 L603.9415,860.7896 L613.9415,860.7896 L603.9415,850.7896" fill="#FFF9DB" style="stroke:#F59F00;stroke-width:0.5;"/><text fill="#000000" font-family="'DejaVu Sans'" font-size="13" lengthAdjust="spacing" textLength="222.8281" x="365.9254" y="867.8564">Idempotent, flow-sensitive sweep.</text><text fill="#000000" font-family="'DejaVu Sans'" font-size="13" font-weight="700" lengthAdjust="spacing" textLength="64.1113" x="365.9254" y="882.9893">NOT SSA</text><text fill="#000000" font-family="'DejaVu Sans'" font-size="13" lengthAdjust="spacing" textLength="105.041" x="434.1691" y="882.9893">&#8212; no phi nodes.</text><text fill="#000000" font-family="'DejaVu Sans'" font-size="13" font-weight="700" lengthAdjust="spacing" textLength="154.9526" x="365.9254" y="898.1221">NOT CFG-propagated</text><text fill="#000000" font-family="'DejaVu Sans'" font-size="13" lengthAdjust="spacing" textLength="73.9312" x="525.0104" y="898.1221">&#8212; reaching</text><text fill="#000000" font-family="'DejaVu Sans'" font-size="13" lengthAdjust="spacing" textLength="203.2393" x="365.9254" y="913.2549">definitions flow along AST child</text><text fill="#000000" font-family="'DejaVu Sans'" font-size="13" lengthAdjust="spacing" textLength="196.0156" x="365.9254" y="928.3877">order, threaded down into the</text><text fill="#000000" font-family="'DejaVu Sans'" font-size="13" lengthAdjust="spacing" textLength="205.7466" x="365.9254" y="943.5205">nested-expression uses of each</text><text fill="#000000" font-family="'DejaVu Sans'" font-size="13" lengthAdjust="spacing" textLength="208.603" x="365.9254" y="958.6533">statement (e.g. x in return f(x)).</text><ellipse cx="328.9254" cy="908.7544" fill="none" rx="11" ry="11" style="stroke:#222222;stroke-width:1;"/><ellipse cx="328.9254" cy="908.7544" fill="#222222" rx="6" ry="6" style="stroke:#222222;stroke-width:1;"/><line style="stroke:#495057;stroke-width:1.1;" x1="328.9254" x2="328.9254" y1="73.4609" y2="93.4609"/><polygon fill="#495057" points="324.9254,83.4609,328.9254,93.4609,332.9254,83.4609,328.9254,87.4609" style="stroke:#495057;stroke-width:1;stroke-linejoin:miter;stroke-miterlimit:10;"/><line style="stroke:#495057;stroke-width:1.1;" x1="255.8832" x2="186.5125" y1="339.5586" y2="339.5586"/><line style="stroke:#495057;stroke-width:1.1;" x1="186.5125" x2="186.5125" y1="339.5586" y2="361.5586"/><polygon fill="#495057" points="182.5125,351.5586,186.5125,361.5586,190.5125,351.5586,186.5125,355.5586" style="stroke:#495057;stroke-width:1;stroke-linejoin:miter;stroke-miterlimit:10;"/><line style="stroke:#495057;stroke-width:1.1;" x1="401.9677" x2="471.3384" y1="339.5586" y2="339.5586"/><line style="stroke:#495057;stroke-width:1.1;" x1="471.3384" x2="471.3384" y1="339.5586" y2="361.5586"/><polygon fill="#495057" points="467.3384,351.5586,471.3384,361.5586,475.3384,351.5586,471.3384,355.5586" style="stroke:#495057;stroke-width:1;stroke-linejoin:miter;stroke-miterlimit:10;"/><line style="stroke:#495057;stroke-width:1.1;" x1="186.5125" x2="186.5125" y1="396.6914" y2="414.6914"/><line style="stroke:#495057;stroke-width:1.1;" x1="186.5125" x2="316.9254" y1="414.6914" y2="414.6914"/><polygon fill="#495057" points="306.9254,410.6914,316.9254,414.6914,306.9254,418.6914,310.9254,414.6914" style="stroke:#495057;stroke-width:1;stroke-linejoin:miter;stroke-miterlimit:10;"/><line style="stroke:#495057;stroke-width:1.1;" x1="471.3384" x2="471.3384" y1="396.6914" y2="414.6914"/><line style="stroke:#495057;stroke-width:1.1;" x1="471.3384" x2="340.9254" y1="414.6914" y2="414.6914"/><polygon fill="#495057" points="350.9254,410.6914,340.9254,414.6914,350.9254,418.6914,346.9254,414.6914" style="stroke:#495057;stroke-width:1;stroke-linejoin:miter;stroke-miterlimit:10;"/><line style="stroke:#495057;stroke-width:1.1;" x1="328.9254" x2="328.9254" y1="301.9922" y2="327.5586"/><polygon fill="#495057" points="324.9254,317.5586,328.9254,327.5586,332.9254,317.5586,328.9254,321.5586" style="stroke:#495057;stroke-width:1;stroke-linejoin:miter;stroke-miterlimit:10;"/><line style="stroke:#495057;stroke-width:1.1;" x1="406.5665" x2="586.2192" y1="289.9922" y2="289.9922"/><polygon fill="#495057" points="582.2192,367.125,586.2192,377.125,590.2192,367.125,586.2192,371.125" style="stroke:#495057;stroke-width:1.1;stroke-linejoin:miter;stroke-miterlimit:10;"/><line style="stroke:#495057;stroke-width:1.1;" x1="586.2192" x2="586.2192" y1="289.9922" y2="458.6914"/><line style="stroke:#495057;stroke-width:1.1;" x1="586.2192" x2="340.9254" y1="458.6914" y2="458.6914"/><polygon fill="#495057" points="350.9254,454.6914,340.9254,458.6914,350.9254,462.6914,346.9254,458.6914" style="stroke:#495057;stroke-width:1;stroke-linejoin:miter;stroke-miterlimit:10;"/><line style="stroke:#495057;stroke-width:1.1;" x1="328.9254" x2="328.9254" y1="426.6914" y2="446.6914"/><polygon fill="#495057" points="324.9254,436.6914,328.9254,446.6914,332.9254,436.6914,328.9254,440.6914" style="stroke:#495057;stroke-width:1;stroke-linejoin:miter;stroke-miterlimit:10;"/><line style="stroke:#495057;stroke-width:1.1;" x1="328.9254" x2="328.9254" y1="257.9922" y2="277.9922"/><polygon fill="#495057" points="324.9254,267.9922,328.9254,277.9922,332.9254,267.9922,328.9254,271.9922" style="stroke:#495057;stroke-width:1;stroke-linejoin:miter;stroke-miterlimit:10;"/><line style="stroke:#495057;stroke-width:1.1;" x1="328.9254" x2="328.9254" y1="514.6914" y2="540.2578"/><polygon fill="#495057" points="324.9254,530.2578,328.9254,540.2578,332.9254,530.2578,328.9254,534.2578" style="stroke:#495057;stroke-width:1;stroke-linejoin:miter;stroke-miterlimit:10;"/><line style="stroke:#495057;stroke-width:1.1;" x1="387.476" x2="488.7865" y1="502.6914" y2="502.6914"/><polygon fill="#495057" points="484.7865,555.3906,488.7865,565.3906,492.7865,555.3906,488.7865,559.3906" style="stroke:#495057;stroke-width:1.1;stroke-linejoin:miter;stroke-miterlimit:10;"/><line style="stroke:#495057;stroke-width:1.1;" x1="488.7865" x2="488.7865" y1="502.6914" y2="622.5234"/><line style="stroke:#495057;stroke-width:1.1;" x1="488.7865" x2="340.9254" y1="622.5234" y2="622.5234"/><polygon fill="#495057" points="350.9254,618.5234,340.9254,622.5234,350.9254,626.5234,346.9254,622.5234" style="stroke:#495057;stroke-width:1;stroke-linejoin:miter;stroke-miterlimit:10;"/><line style="stroke:#495057;stroke-width:1.1;" x1="328.9254" x2="328.9254" y1="590.5234" y2="610.5234"/><polygon fill="#495057" points="324.9254,600.5234,328.9254,610.5234,332.9254,600.5234,328.9254,604.5234" style="stroke:#495057;stroke-width:1;stroke-linejoin:miter;stroke-miterlimit:10;"/><line style="stroke:#495057;stroke-width:1.1;" x1="328.9254" x2="328.9254" y1="470.6914" y2="490.6914"/><polygon fill="#495057" points="324.9254,480.6914,328.9254,490.6914,332.9254,480.6914,328.9254,484.6914" style="stroke:#495057;stroke-width:1;stroke-linejoin:miter;stroke-miterlimit:10;"/><line style="stroke:#495057;stroke-width:1.1;" x1="328.9254" x2="328.9254" y1="678.5234" y2="704.0898"/><polygon fill="#495057" points="324.9254,694.0898,328.9254,704.0898,332.9254,694.0898,328.9254,698.0898" style="stroke:#495057;stroke-width:1;stroke-linejoin:miter;stroke-miterlimit:10;"/><line style="stroke:#495057;stroke-width:1.1;" x1="473.7692" x2="492.9918" y1="666.5234" y2="666.5234"/><polygon fill="#495057" points="488.9918,711.6563,492.9918,721.6563,496.9918,711.6563,492.9918,715.6563" style="stroke:#495057;stroke-width:1.1;stroke-linejoin:miter;stroke-miterlimit:10;"/><line style="stroke:#495057;stroke-width:1.1;" x1="492.9918" x2="492.9918" y1="666.5234" y2="771.2227"/><line style="stroke:#495057;stroke-width:1.1;" x1="492.9918" x2="340.9254" y1="771.2227" y2="771.2227"/><polygon fill="#495057" points="350.9254,767.2227,340.9254,771.2227,350.9254,775.2227,346.9254,771.2227" style="stroke:#495057;stroke-width:1;stroke-linejoin:miter;stroke-miterlimit:10;"/><line style="stroke:#495057;stroke-width:1.1;" x1="328.9254" x2="328.9254" y1="739.2227" y2="759.2227"/><polygon fill="#495057" points="324.9254,749.2227,328.9254,759.2227,332.9254,749.2227,328.9254,753.2227" style="stroke:#495057;stroke-width:1;stroke-linejoin:miter;stroke-miterlimit:10;"/><line style="stroke:#495057;stroke-width:1.1;" x1="328.9254" x2="328.9254" y1="634.5234" y2="654.5234"/><polygon fill="#495057" points="324.9254,644.5234,328.9254,654.5234,332.9254,644.5234,328.9254,648.5234" style="stroke:#495057;stroke-width:1;stroke-linejoin:miter;stroke-miterlimit:10;"/><line style="stroke:#495057;stroke-width:1.1;" x1="328.9254" x2="328.9254" y1="202.8594" y2="222.8594"/><polygon fill="#495057" points="324.9254,212.8594,328.9254,222.8594,332.9254,212.8594,328.9254,216.8594" style="stroke:#495057;stroke-width:1;stroke-linejoin:miter;stroke-miterlimit:10;"/><line style="stroke:#495057;stroke-width:1.1;" x1="448.9371" x2="610.2192" y1="815.2227" y2="815.2227"/><polygon fill="#495057" points="606.2192,508.3242,610.2192,498.3242,614.2192,508.3242,610.2192,504.3242" style="stroke:#495057;stroke-width:1.1;stroke-linejoin:miter;stroke-miterlimit:10;"/><line style="stroke:#495057;stroke-width:1.1;" x1="610.2192" x2="610.2192" y1="190.8594" y2="815.2227"/><line style="stroke:#495057;stroke-width:1.1;" x1="610.2192" x2="340.9254" y1="190.8594" y2="190.8594"/><polygon fill="#495057" points="350.9254,186.8594,340.9254,190.8594,350.9254,194.8594,346.9254,190.8594" style="stroke:#495057;stroke-width:1;stroke-linejoin:miter;stroke-miterlimit:10;"/><line style="stroke:#495057;stroke-width:1.1;" x1="328.9254" x2="328.9254" y1="783.2227" y2="803.2227"/><polygon fill="#495057" points="324.9254,793.2227,328.9254,803.2227,332.9254,793.2227,328.9254,797.2227" style="stroke:#495057;stroke-width:1;stroke-linejoin:miter;stroke-miterlimit:10;"/><line style="stroke:#495057;stroke-width:1.1;" x1="328.9254" x2="328.9254" y1="158.8594" y2="178.8594"/><polygon fill="#495057" points="324.9254,168.8594,328.9254,178.8594,332.9254,168.8594,328.9254,172.8594" style="stroke:#495057;stroke-width:1;stroke-linejoin:miter;stroke-miterlimit:10;"/><line style="stroke:#495057;stroke-width:1.1;" x1="328.9254" x2="328.9254" y1="827.2227" y2="897.7544"/><polygon fill="#495057" points="324.9254,887.7544,328.9254,897.7544,332.9254,887.7544,328.9254,891.7544" style="stroke:#495057;stroke-width:1;stroke-linejoin:miter;stroke-miterlimit:10;"/><g class="legend" data-source-line="39"><rect fill="#F8F9FA" height="62.8906" rx="3" ry="3" style="stroke:#CED4DA;stroke-width:1;" width="419.6436" x="201.5757" y="988.7192"/><text fill="#000000" font-family="'DejaVu Sans'" font-size="14" font-weight="700" lengthAdjust="spacing" textLength="49.2051" x="211.4497" y="1008.7144">colour</text><text fill="#000000" font-family="'DejaVu Sans'" font-size="14" font-weight="700" lengthAdjust="spacing" textLength="89.6943" x="270.4028" y="1008.7144">sweep step</text><rect fill="#DBE4FF" height="16.2969" style="stroke:none;stroke-width:1;" width="58.9531" x="206.5757" y="1012.0161"/><text fill="#000000" font-family="'DejaVu Sans'" font-size="14" lengthAdjust="spacing" textLength="4.4502" x="206.5757" y="1025.0112">&#160;</text><text fill="#000000" font-family="'DejaVu Sans'" font-size="14" lengthAdjust="spacing" textLength="177.3174" x="269.979" y="1025.0112">AST traversal (visit node)</text><rect fill="#FFF3BF" height="16.2969" style="stroke:none;stroke-width:1;" width="58.9531" x="206.5757" y="1028.313"/><text fill="#000000" font-family="'DejaVu Sans'" font-size="14" lengthAdjust="spacing" textLength="4.4502" x="206.5757" y="1041.3081">&#160;</text><text fill="#000000" font-family="'DejaVu Sans'" font-size="14" lengthAdjust="spacing" textLength="341.79" x="269.979" y="1041.3081">DataFlow &#8212; reaching-definition update / use link</text><line style="stroke:#000000;stroke-width:1;" x1="206.5757" x2="616.2192" y1="995.7192" y2="995.7192"/><line style="stroke:#000000;stroke-width:1;" x1="206.5757" x2="616.2192" y1="1012.0161" y2="1012.0161"/><line style="stroke:#000000;stroke-width:1;" x1="206.5757" x2="616.2192" y1="1028.313" y2="1028.313"/><line style="stroke:#000000;stroke-width:1;" x1="206.5757" x2="616.2192" y1="1044.6099" y2="1044.6099"/><line style="stroke:#000000;stroke-width:1;" x1="206.5757" x2="206.5757" y1="995.7192" y2="1044.6099"/><line style="stroke:#000000;stroke-width:1;" x1="265.5288" x2="265.5288" y1="995.7192" y2="1044.6099"/><line style="stroke:#000000;stroke-width:1;" x1="616.2192" x2="616.2192" y1="995.7192" y2="1044.6099"/></g></g></svg>