<svg xmlns="http://www.w3.org/2000/svg" xmlns:xlink="http://www.w3.org/1999/xlink" contentStyleType="text/css" data-diagram-type="MINDMAP" height="291px" preserveAspectRatio="none" style="width:650px;height:291px;background:#FFFFFF;" version="1.1" viewBox="0 0 650 291" width="650px" zoomAndPan="magnify"><?plantuml $version$?><defs/><g><rect fill="#F1F3F5" height="50.2656" rx="3" ry="3" style="stroke:#181818;stroke-width:1.5;" width="176.311" x="10" y="110.2656"/><text fill="#000000" font-family="'DejaVu Sans'" font-size="13" lengthAdjust="spacing" textLength="101.3403" x="20" y="132.3325">GraphSimilarity</text><text fill="#000000" font-family="'DejaVu Sans'" font-size="13" lengthAdjust="spacing" textLength="156.311" x="20" y="147.4653">structural 0.7 &#183; label 0.3</text><rect fill="#FFF3BF" height="50.2656" rx="3" ry="3" style="stroke:#181818;stroke-width:1.5;" width="75.8848" x="236.311" y="20"/><text fill="#000000" font-family="'DejaVu Sans'" font-size="13" lengthAdjust="spacing" textLength="47.6582" x="246.311" y="42.0669">Jaccard</text><text fill="#000000" font-family="'DejaVu Sans'" font-size="13" lengthAdjust="spacing" textLength="55.8848" x="246.311" y="57.1997">(default)</text><rect fill="#FFF3BF" height="35.1328" rx="3" ry="3" style="stroke:#181818;stroke-width:1.5;" width="194.9414" x="362.1958" y="27.5664"/><text fill="#000000" font-family="'DejaVu Sans'" font-size="13" lengthAdjust="spacing" textLength="174.9414" x="372.1958" y="49.6333">node-kind multiset overlap</text><path d="M312.1958,45.1328 L322.1958,45.1328 C337.1958,45.1328 337.1958,45.1328 352.1958,45.1328 L362.1958,45.1328" fill="none" style="stroke:#495057;stroke-width:1.1;"/><path d="M186.311,135.3984 L196.311,135.3984 C211.311,135.3984 211.311,45.1328 226.311,45.1328 L236.311,45.1328" fill="none" style="stroke:#495057;stroke-width:1.1;"/><rect fill="#DBE4FF" height="35.1328" rx="3" ry="3" style="stroke:#181818;stroke-width:1.5;" width="63.6528" x="236.311" y="90.2656"/><text fill="#000000" font-family="'DejaVu Sans'" font-size="13" lengthAdjust="spacing" textLength="43.6528" x="246.311" y="112.3325">Cosine</text><rect fill="#DBE4FF" height="35.1328" rx="3" ry="3" style="stroke:#181818;stroke-width:1.5;" width="225.4736" x="349.9639" y="90.2656"/><text fill="#000000" font-family="'DejaVu Sans'" font-size="13" lengthAdjust="spacing" textLength="205.4736" x="359.9639" y="112.3325">9-element graph feature vector</text><path d="M299.9639,107.832 L309.9639,107.832 C324.9639,107.832 324.9639,107.832 339.9639,107.832 L349.9639,107.832" fill="none" style="stroke:#495057;stroke-width:1.1;"/><path d="M186.311,135.3984 L196.311,135.3984 C211.311,135.3984 211.311,107.832 226.311,107.832 L236.311,107.832" fill="none" style="stroke:#495057;stroke-width:1.1;"/><rect fill="#E5DBFF" height="35.1328" rx="3" ry="3" style="stroke:#181818;stroke-width:1.5;" width="136.7271" x="236.311" y="152.9648"/><text fill="#000000" font-family="'DejaVu Sans'" font-size="13" lengthAdjust="spacing" textLength="116.7271" x="246.311" y="175.0317">WeisfeilerLehman</text><rect fill="#E5DBFF" height="50.2656" rx="3" ry="3" style="stroke:#181818;stroke-width:1.5;" width="206.126" x="423.0381" y="145.3984"/><text fill="#000000" font-family="'DejaVu Sans'" font-size="13" lengthAdjust="spacing" textLength="82.9067" x="433.0381" y="167.4653">graph kernel</text><text fill="#000000" font-family="'DejaVu Sans'" font-size="13" lengthAdjust="spacing" textLength="186.126" x="433.0381" y="182.5981">3 label-refinement iterations</text><path d="M373.0381,170.5313 L383.0381,170.5313 C398.0381,170.5313 398.0381,170.5313 413.0381,170.5313 L423.0381,170.5313" fill="none" style="stroke:#495057;stroke-width:1.1;"/><path d="M186.311,135.3984 L196.311,135.3984 C211.311,135.3984 211.311,170.5313 226.311,170.5313 L236.311,170.5313" fill="none" style="stroke:#495057;stroke-width:1.1;"/><rect fill="#C3FAE8" height="35.1328" rx="3" ry="3" style="stroke:#181818;stroke-width:1.5;" width="85.0508" x="236.311" y="215.6641"/><text fill="#000000" font-family="'DejaVu Sans'" font-size="13" lengthAdjust="spacing" textLength="65.0508" x="246.311" y="237.731">GraphEdit</text><rect fill="#C3FAE8" height="35.1328" rx="3" ry="3" style="stroke:#181818;stroke-width:1.5;" width="232.1514" x="371.3618" y="215.6641"/><text fill="#000000" font-family="'DejaVu Sans'" font-size="13" lengthAdjust="spacing" textLength="212.1514" x="381.3618" y="237.731">approximate edit-distance blend</text><path d="M321.3618,233.2305 L331.3618,233.2305 C346.3618,233.2305 346.3618,233.2305 361.3618,233.2305 L371.3618,233.2305" fill="none" style="stroke:#495057;stroke-width:1.1;"/><path d="M186.311,135.3984 L196.311,135.3984 C211.311,135.3984 211.311,233.2305 226.311,233.2305 L236.311,233.2305" fill="none" style="stroke:#495057;stroke-width:1.1;"/><g class="caption" data-source-line="2"><text fill="#000000" font-family="'DejaVu Sans'" font-size="14" lengthAdjust="spacing" textLength="550.5869" x="48.7886" y="274.792">GraphSimilarity &#8212; SimilarityMetric variants (weights: structural 0.7 / label 0.3)</text></g></g></svg>