<?xml version="1.0" encoding="UTF-8" standalone="no"?>
<!DOCTYPE svg PUBLIC "-//W3C//DTD SVG 1.1//EN"
 "http://www.w3.org/Graphics/SVG/1.1/DTD/svg11.dtd">
<!-- Generated by graphviz version 15.1.0 (0)
 -->
<!-- Title: SliceExample Pages: 1 -->
<svg width="626pt" height="472pt"
 viewBox="0.00 0.00 626.00 472.00" xmlns="http://www.w3.org/2000/svg" xmlns:xlink="http://www.w3.org/1999/xlink">
<g id="graph0" class="graph" transform="scale(1 1) rotate(0) translate(4 467.5)">
<title>SliceExample</title>
<polygon fill="white" stroke="none" points="-4,4 -4,-467.5 622.25,-467.5 622.25,4 -4,4"/>
<text xml:space="preserve" text-anchor="middle" x="309.12" y="-445.25" font-family="DejaVu Sans" font-size="15.00">Backward slice from seed r (return z) over PDG edges — bounded by max_nodes</text>
<g id="clust1" class="cluster">
<title>cluster_legend</title>
<polygon fill="#f8f9fa" stroke="#ced4da" points="179.38,-280 179.38,-429.5 569.38,-429.5 569.38,-280 179.38,-280"/>
<text xml:space="preserve" text-anchor="middle" x="374.38" y="-411.25" font-family="DejaVu Sans" font-size="15.00">Legend</text>
</g>
<!-- p -->
<g id="node1" class="node">
<title>p</title>
<path fill="#ffe3e3" stroke="#e03131" d="M157.25,-359.75C157.25,-359.75 101.5,-359.75 101.5,-359.75 95.5,-359.75 89.5,-353.75 89.5,-347.75 89.5,-347.75 89.5,-335.75 89.5,-335.75 89.5,-329.75 95.5,-323.75 101.5,-323.75 101.5,-323.75 157.25,-323.75 157.25,-323.75 163.25,-323.75 169.25,-329.75 169.25,-335.75 169.25,-335.75 169.25,-347.75 169.25,-347.75 169.25,-353.75 163.25,-359.75 157.25,-359.75"/>
<text xml:space="preserve" text-anchor="middle" x="129.38" y="-338.05" font-family="DejaVu Sans" font-size="11.00">p : param x</text>
</g>
<!-- c -->
<g id="node2" class="node">
<title>c</title>
<path fill="#ffe3e3" stroke="#e03131" d="M199.75,-252C199.75,-252 141,-252 141,-252 135,-252 129,-246 129,-240 129,-240 129,-228 129,-228 129,-222 135,-216 141,-216 141,-216 199.75,-216 199.75,-216 205.75,-216 211.75,-222 211.75,-228 211.75,-228 211.75,-240 211.75,-240 211.75,-246 205.75,-252 199.75,-252"/>
<text xml:space="preserve" text-anchor="middle" x="170.38" y="-230.3" font-family="DejaVu Sans" font-size="11.00">c : if (x &gt; 0)</text>
</g>
<!-- p&#45;&gt;c -->
<g id="edge1" class="edge">
<title>p&#45;&gt;c</title>
<path fill="none" stroke="#7048e8" stroke-width="1.6" stroke-dasharray="5,2" d="M136.15,-323.29C142.41,-307.14 151.83,-282.83 159.21,-263.81"/>
<polygon fill="#7048e8" stroke="#7048e8" stroke-width="1.6" points="162.37,-265.34 162.72,-254.75 155.84,-262.8 162.37,-265.34"/>
</g>
<!-- t -->
<g id="node3" class="node">
<title>t</title>
<path fill="#ffe3e3" stroke="#e03131" d="M113.88,-180C113.88,-180 52.88,-180 52.88,-180 46.88,-180 40.88,-174 40.88,-168 40.88,-168 40.88,-156 40.88,-156 40.88,-150 46.88,-144 52.88,-144 52.88,-144 113.88,-144 113.88,-144 119.88,-144 125.88,-150 125.88,-156 125.88,-156 125.88,-168 125.88,-168 125.88,-174 119.88,-180 113.88,-180"/>
<text xml:space="preserve" text-anchor="middle" x="83.38" y="-158.3" font-family="DejaVu Sans" font-size="11.00">t : y = x + 1</text>
</g>
<!-- p&#45;&gt;t -->
<g id="edge2" class="edge">
<title>p&#45;&gt;t</title>
<path fill="none" stroke="#7048e8" stroke-width="1.6" stroke-dasharray="5,2" d="M124.88,-323.38C116.98,-292.85 100.53,-229.27 90.88,-191.99"/>
<polygon fill="#7048e8" stroke="#7048e8" stroke-width="1.6" points="94.39,-191.59 88.49,-182.78 87.61,-193.34 94.39,-191.59"/>
</g>
<!-- c&#45;&gt;t -->
<g id="edge6" class="edge">
<title>c&#45;&gt;t</title>
<path fill="none" stroke="#7048e8" stroke-width="1.8" stroke-dasharray="1,5" d="M148.87,-215.7C138.52,-207.37 125.91,-197.22 114.53,-188.07"/>
<polygon fill="#7048e8" stroke="#7048e8" stroke-width="1.8" points="117.04,-185.6 107.06,-182.05 112.65,-191.05 117.04,-185.6"/>
</g>
<!-- e -->
<g id="node4" class="node">
<title>e</title>
<path fill="#ffe3e3" stroke="#e03131" d="M196.38,-180C196.38,-180 156.38,-180 156.38,-180 150.38,-180 144.38,-174 144.38,-168 144.38,-168 144.38,-156 144.38,-156 144.38,-150 150.38,-144 156.38,-144 156.38,-144 196.38,-144 196.38,-144 202.38,-144 208.38,-150 208.38,-156 208.38,-156 208.38,-168 208.38,-168 208.38,-174 202.38,-180 196.38,-180"/>
<text xml:space="preserve" text-anchor="middle" x="176.38" y="-158.3" font-family="DejaVu Sans" font-size="11.00">e : y = 0</text>
</g>
<!-- c&#45;&gt;e -->
<g id="edge7" class="edge">
<title>c&#45;&gt;e</title>
<path fill="none" stroke="#7048e8" stroke-width="1.8" stroke-dasharray="1,5" d="M171.86,-215.7C172.45,-208.75 173.16,-200.53 173.83,-192.68"/>
<polygon fill="#7048e8" stroke="#7048e8" stroke-width="1.8" points="177.31,-193.08 174.68,-182.82 170.33,-192.48 177.31,-193.08"/>
</g>
<!-- d -->
<g id="node7" class="node">
<title>d</title>
<path fill="#f1f3f5" stroke="#495057" d="M346.5,-180C346.5,-180 238.25,-180 238.25,-180 232.25,-180 226.25,-174 226.25,-168 226.25,-168 226.25,-156 226.25,-156 226.25,-150 232.25,-144 238.25,-144 238.25,-144 346.5,-144 346.5,-144 352.5,-144 358.5,-150 358.5,-156 358.5,-156 358.5,-168 358.5,-168 358.5,-174 352.5,-180 346.5,-180"/>
<text xml:space="preserve" text-anchor="middle" x="292.38" y="-165.05" font-family="DejaVu Sans" font-size="11.00">d : w = 42</text>
<text xml:space="preserve" text-anchor="middle" x="292.38" y="-151.55" font-family="DejaVu Sans" font-size="11.00">(unused — excluded)</text>
</g>
<!-- c&#45;&gt;d -->
<g id="edge8" class="edge">
<title>c&#45;&gt;d</title>
<path fill="none" stroke="#7048e8" stroke-width="1.8" stroke-dasharray="1,5" d="M200.85,-215.52C216.1,-206.76 234.78,-196.04 251.29,-186.58"/>
<polygon fill="#7048e8" stroke="#7048e8" stroke-width="1.8" points="253,-189.63 259.93,-181.62 249.51,-183.56 253,-189.63"/>
</g>
<!-- m -->
<g id="node5" class="node">
<title>m</title>
<path fill="#ffe3e3" stroke="#e03131" d="M150.88,-108C150.88,-108 107.88,-108 107.88,-108 101.88,-108 95.88,-102 95.88,-96 95.88,-96 95.88,-84 95.88,-84 95.88,-78 101.88,-72 107.88,-72 107.88,-72 150.88,-72 150.88,-72 156.88,-72 162.88,-78 162.88,-84 162.88,-84 162.88,-96 162.88,-96 162.88,-102 156.88,-108 150.88,-108"/>
<text xml:space="preserve" text-anchor="middle" x="129.38" y="-86.3" font-family="DejaVu Sans" font-size="11.00">m : z = y</text>
</g>
<!-- t&#45;&gt;m -->
<g id="edge3" class="edge">
<title>t&#45;&gt;m</title>
<path fill="none" stroke="#7048e8" stroke-width="1.6" stroke-dasharray="5,2" d="M94.75,-143.7C99.76,-136.07 105.77,-126.92 111.37,-118.4"/>
<polygon fill="#7048e8" stroke="#7048e8" stroke-width="1.6" points="114.24,-120.41 116.81,-110.13 108.39,-116.56 114.24,-120.41"/>
</g>
<!-- e&#45;&gt;m -->
<g id="edge4" class="edge">
<title>e&#45;&gt;m</title>
<path fill="none" stroke="#7048e8" stroke-width="1.6" stroke-dasharray="5,2" d="M164.76,-143.7C159.63,-136.07 153.49,-126.92 147.77,-118.4"/>
<polygon fill="#7048e8" stroke="#7048e8" stroke-width="1.6" points="150.69,-116.47 142.21,-110.11 144.88,-120.37 150.69,-116.47"/>
</g>
<!-- r -->
<g id="node6" class="node">
<title>r</title>
<path fill="#ffe3e3" stroke="#e03131" stroke-width="3" d="M155,-36C155,-36 103.75,-36 103.75,-36 97.75,-36 91.75,-30 91.75,-24 91.75,-24 91.75,-12 91.75,-12 91.75,-6 97.75,0 103.75,0 103.75,0 155,0 155,0 161,0 167,-6 167,-12 167,-12 167,-24 167,-24 167,-30 161,-36 155,-36"/>
<text xml:space="preserve" text-anchor="middle" x="129.38" y="-21.05" font-family="DejaVu Sans" font-size="11.00">r : return z</text>
<text xml:space="preserve" text-anchor="middle" x="129.38" y="-7.55" font-family="DejaVu Sans" font-size="11.00">(SEED)</text>
</g>
<!-- m&#45;&gt;r -->
<g id="edge5" class="edge">
<title>m&#45;&gt;r</title>
<path fill="none" stroke="#7048e8" stroke-width="1.6" stroke-dasharray="5,2" d="M129.38,-71.7C129.38,-64.95 129.38,-57.02 129.38,-49.39"/>
<polygon fill="#7048e8" stroke="#7048e8" stroke-width="1.6" points="132.88,-49.5 129.38,-39.5 125.88,-49.5 132.88,-49.5"/>
</g>
<!-- legend -->
<g id="node8" class="node">
<title>legend</title>
<text xml:space="preserve" text-anchor="start" x="199.62" y="-377" font-family="DejaVu Sans" font-size="11.00" fill="#7048e8">····</text>
<text xml:space="preserve" text-anchor="start" x="221.38" y="-377" font-family="DejaVu Sans" font-size="11.00">ControlDependence (branch → guarded)</text>
<text xml:space="preserve" text-anchor="start" x="199.62" y="-357.5" font-family="DejaVu Sans" font-size="11.00" fill="#7048e8">–––</text>
<text xml:space="preserve" text-anchor="start" x="221.38" y="-357.5" font-family="DejaVu Sans" font-size="11.00">DataDependence (def → use)</text>
<polygon fill="#ffe3e3" stroke="none" points="197.62,-333 197.62,-350.5 217.38,-350.5 217.38,-333 197.62,-333"/>
<text xml:space="preserve" text-anchor="start" x="199.62" y="-338" font-family="DejaVu Sans" font-size="11.00" fill="#e03131">■</text>
<text xml:space="preserve" text-anchor="start" x="221.38" y="-338" font-family="DejaVu Sans" font-size="11.00">in backward slice of r</text>
<polygon fill="#f1f3f5" stroke="none" points="197.62,-313.5 197.62,-331 217.38,-331 217.38,-313.5 197.62,-313.5"/>
<text xml:space="preserve" text-anchor="start" x="199.62" y="-318.5" font-family="DejaVu Sans" font-size="11.00" fill="#495057">■</text>
<text xml:space="preserve" text-anchor="start" x="221.38" y="-318.5" font-family="DejaVu Sans" font-size="11.00">excluded (value never reaches r)</text>
<text xml:space="preserve" text-anchor="start" x="199.62" y="-299" font-family="DejaVu Sans" font-size="11.00"> </text>
<text xml:space="preserve" text-anchor="start" x="221.38" y="-299" font-family="DejaVu Sans" font-size="11.00">slice = reverse&#45;BFS over PDG edges, capped at max_nodes</text>
</g>
</g>
</svg>
