<svg xmlns="http://www.w3.org/2000/svg" xmlns:xlink="http://www.w3.org/1999/xlink" contentStyleType="text/css" data-diagram-type="ACTIVITY" height="953px" preserveAspectRatio="none" style="width:599px;height:953px;background:#FFFFFF;" version="1.1" viewBox="0 0 599 953" width="599px" zoomAndPan="magnify"><?plantuml $version$?><defs/><g><g class="title" data-source-line="2"><text fill="#000000" font-family="'DejaVu Sans'" font-size="15" font-weight="700" lengthAdjust="spacing" textLength="535.3271" x="30.9832" y="33.9233">Threat model &#8212; untrusted-input dataflow and trust boundaries</text></g><ellipse cx="156.0444" cy="63.4609" fill="#2F9E44" rx="10" ry="10" style="stroke:#222222;stroke-width:1;"/><rect fill="#FFE3E3" height="35.1328" rx="3" ry="3" style="stroke:#495057;stroke-width:0.5;" width="170.814" x="70.6375" y="93.4609"/><text fill="#000000" font-family="'DejaVu Sans'" font-size="13" lengthAdjust="spacing" textLength="150.814" x="80.6375" y="115.5278">untrusted source bytes</text><path d="M270.811,146.0273 L270.811,169.7266 L250.811,173.7266 L270.811,177.7266 L270.811,201.4258 A0,0 0 0 0 270.811,201.4258 L578.2935,201.4258 A0,0 0 0 0 578.2935,201.4258 L578.2935,156.0273 L568.2935,146.0273 L270.811,146.0273 A0,0 0 0 0 270.811,146.0273" fill="#FFF9DB" style="stroke:#F59F00;stroke-width:0.5;"/><path d="M568.2935,146.0273 L568.2935,156.0273 L578.2935,156.0273 L568.2935,146.0273" fill="#FFF9DB" style="stroke:#F59F00;stroke-width:0.5;"/><text fill="#000000" font-family="'DejaVu Sans'" font-size="13" font-weight="700" lengthAdjust="spacing" textLength="117.6602" x="276.811" y="163.0942">Trust boundary.</text><text fill="#000000" font-family="'DejaVu Sans'" font-size="13" lengthAdjust="spacing" textLength="164.6899" x="398.6035" y="163.0942">build_from_tree (Mode B)</text><text fill="#000000" font-family="'DejaVu Sans'" font-size="13" font-style="italic" lengthAdjust="spacing" textLength="32.938" x="276.811" y="178.2271">skips</text><text fill="#000000" font-family="'DejaVu Sans'" font-size="13" lengthAdjust="spacing" textLength="235.79" x="313.8813" y="178.2271">this size check &#8212; enforcing an input</text><text fill="#000000" font-family="'DejaVu Sans'" font-size="13" lengthAdjust="spacing" textLength="259.873" x="276.811" y="193.3599">bound is then the caller's responsibility.</text><rect fill="#D3F9D8" height="50.2656" rx="3" ry="3" style="stroke:#495057;stroke-width:0.5;" width="189.5332" x="61.2778" y="148.5938"/><text fill="#000000" font-family="'DejaVu Sans'" font-size="13" lengthAdjust="spacing" textLength="128.5146" x="71.2778" y="170.6606">max_file_size guard</text><text fill="#000000" font-family="'DejaVu Sans'" font-size="13" lengthAdjust="spacing" textLength="169.5332" x="71.2778" y="185.7935">(reject &gt; 10 MB in build())</text><rect fill="#DBE4FF" height="50.2656" rx="3" ry="3" style="stroke:#495057;stroke-width:0.5;" width="215.6284" x="48.2302" y="221.4258"/><text fill="#000000" font-family="'DejaVu Sans'" font-size="13" lengthAdjust="spacing" textLength="105.5171" x="58.2302" y="243.4927">tree-sitter parse</text><text fill="#000000" font-family="'DejaVu Sans'" font-size="13" lengthAdjust="spacing" textLength="195.6284" x="58.2302" y="258.6255">(bounded; no code execution)</text><rect fill="#F1F3F5" height="50.2656" rx="3" ry="3" style="stroke:#495057;stroke-width:0.5;" width="147.7339" x="82.1775" y="291.6914"/><text fill="#000000" font-family="'DejaVu Sans'" font-size="13" lengthAdjust="spacing" textLength="111.9663" x="92.1775" y="313.7583">CPG construction</text><text fill="#000000" font-family="'DejaVu Sans'" font-size="13" lengthAdjust="spacing" textLength="127.7339" x="92.1775" y="328.8911">(AST + CFG + DFG)</text><rect fill="#E5DBFF" height="65.3984" rx="3" ry="3" style="stroke:#495057;stroke-width:0.5;" width="280.0889" x="16" y="361.957"/><text fill="#000000" font-family="'DejaVu Sans'" font-size="13" lengthAdjust="spacing" textLength="135.4717" x="26" y="384.0239">bounded analyses &#8212;</text><text fill="#000000" font-family="'DejaVu Sans'" font-size="13" lengthAdjust="spacing" textLength="260.0889" x="26" y="399.1567">VF2 max_matches, DFG max_iterations,</text><text fill="#000000" font-family="'DejaVu Sans'" font-size="13" lengthAdjust="spacing" textLength="107.3135" x="26" y="414.2896">slice max_nodes</text><rect fill="#C3FAE8" height="35.1328" rx="3" ry="3" style="stroke:#495057;stroke-width:0.5;" width="63.8369" x="124.126" y="447.3555"/><text fill="#000000" font-family="'DejaVu Sans'" font-size="13" lengthAdjust="spacing" textLength="43.8369" x="134.126" y="469.4224">results</text><ellipse cx="156.0444" cy="513.4883" fill="none" rx="11" ry="11" style="stroke:#222222;stroke-width:1;"/><ellipse cx="156.0444" cy="513.4883" fill="#222222" rx="6" ry="6" style="stroke:#222222;stroke-width:1;"/><ellipse cx="156.0444" cy="544.4883" fill="#2F9E44" rx="10" ry="10" style="stroke:#222222;stroke-width:1;"/><rect fill="#FFE3E3" height="35.1328" rx="3" ry="3" style="stroke:#495057;stroke-width:0.5;" width="266.1177" x="22.9856" y="574.4883"/><text fill="#000000" font-family="'DejaVu Sans'" font-size="13" lengthAdjust="spacing" textLength="246.1177" x="32.9856" y="596.5552">serialized graph bytes (serde feature)</text><rect fill="#FFE3E3" height="70.0547" rx="3" ry="3" style="stroke:#495057;stroke-width:0.5;" width="189.4507" x="61.3191" y="629.6211"/><text fill="#000000" font-family="'DejaVu Sans'" font-size="13" lengthAdjust="spacing" textLength="135.3574" x="71.3191" y="651.688">serde deserialization</text><text fill="#000000" font-family="'DejaVu Sans'" font-size="17" font-weight="700" lengthAdjust="spacing" textLength="143.9355" x="71.3191" y="670.5337">trust boundary</text><text fill="#000000" font-family="'DejaVu Sans'" font-size="13" lengthAdjust="spacing" textLength="169.4507" x="71.3191" y="686.6099">(load only trusted graphs)</text><rect fill="#C3FAE8" height="35.1328" rx="3" ry="3" style="stroke:#495057;stroke-width:0.5;" width="241.3872" x="35.3508" y="719.6758"/><text fill="#000000" font-family="'DejaVu Sans'" font-size="13" lengthAdjust="spacing" textLength="221.3872" x="45.3508" y="741.7427">CodePropertyGraph (trusted only)</text><ellipse cx="156.0444" cy="785.8086" fill="none" rx="11" ry="11" style="stroke:#222222;stroke-width:1;"/><ellipse cx="156.0444" cy="785.8086" fill="#222222" rx="6" ry="6" style="stroke:#222222;stroke-width:1;"/><line style="stroke:#495057;stroke-width:1.1;" x1="156.0444" x2="156.0444" y1="73.4609" y2="93.4609"/><polygon fill="#495057" points="152.0444,83.4609,156.0444,93.4609,160.0444,83.4609,156.0444,87.4609" style="stroke:#495057;stroke-width:1;stroke-linejoin:miter;stroke-miterlimit:10;"/><line style="stroke:#495057;stroke-width:1.1;" x1="156.0444" x2="156.0444" y1="128.5938" y2="148.5938"/><polygon fill="#495057" points="152.0444,138.5938,156.0444,148.5938,160.0444,138.5938,156.0444,142.5938" style="stroke:#495057;stroke-width:1;stroke-linejoin:miter;stroke-miterlimit:10;"/><line style="stroke:#495057;stroke-width:1.1;" x1="156.0444" x2="156.0444" y1="198.8594" y2="221.4258"/><polygon fill="#495057" points="152.0444,211.4258,156.0444,221.4258,160.0444,211.4258,156.0444,215.4258" style="stroke:#495057;stroke-width:1;stroke-linejoin:miter;stroke-miterlimit:10;"/><line style="stroke:#495057;stroke-width:1.1;" x1="156.0444" x2="156.0444" y1="271.6914" y2="291.6914"/><polygon fill="#495057" points="152.0444,281.6914,156.0444,291.6914,160.0444,281.6914,156.0444,285.6914" style="stroke:#495057;stroke-width:1;stroke-linejoin:miter;stroke-miterlimit:10;"/><line style="stroke:#495057;stroke-width:1.1;" x1="156.0444" x2="156.0444" y1="341.957" y2="361.957"/><polygon fill="#495057" points="152.0444,351.957,156.0444,361.957,160.0444,351.957,156.0444,355.957" style="stroke:#495057;stroke-width:1;stroke-linejoin:miter;stroke-miterlimit:10;"/><line style="stroke:#495057;stroke-width:1.1;" x1="156.0444" x2="156.0444" y1="427.3555" y2="447.3555"/><polygon fill="#495057" points="152.0444,437.3555,156.0444,447.3555,160.0444,437.3555,156.0444,441.3555" style="stroke:#495057;stroke-width:1;stroke-linejoin:miter;stroke-miterlimit:10;"/><line style="stroke:#495057;stroke-width:1.1;" x1="156.0444" x2="156.0444" y1="482.4883" y2="502.4883"/><polygon fill="#495057" points="152.0444,492.4883,156.0444,502.4883,160.0444,492.4883,156.0444,496.4883" style="stroke:#495057;stroke-width:1;stroke-linejoin:miter;stroke-miterlimit:10;"/><line style="stroke:#495057;stroke-width:1.1;" x1="156.0444" x2="156.0444" y1="554.4883" y2="574.4883"/><polygon fill="#495057" points="152.0444,564.4883,156.0444,574.4883,160.0444,564.4883,156.0444,568.4883" style="stroke:#495057;stroke-width:1;stroke-linejoin:miter;stroke-miterlimit:10;"/><line style="stroke:#495057;stroke-width:1.1;" x1="156.0444" x2="156.0444" y1="609.6211" y2="629.6211"/><polygon fill="#495057" points="152.0444,619.6211,156.0444,629.6211,160.0444,619.6211,156.0444,623.6211" style="stroke:#495057;stroke-width:1;stroke-linejoin:miter;stroke-miterlimit:10;"/><line style="stroke:#495057;stroke-width:1.1;" x1="156.0444" x2="156.0444" y1="699.6758" y2="719.6758"/><polygon fill="#495057" points="152.0444,709.6758,156.0444,719.6758,160.0444,709.6758,156.0444,713.6758" style="stroke:#495057;stroke-width:1;stroke-linejoin:miter;stroke-miterlimit:10;"/><line style="stroke:#495057;stroke-width:1.1;" x1="156.0444" x2="156.0444" y1="754.8086" y2="774.8086"/><polygon fill="#495057" points="152.0444,764.8086,156.0444,774.8086,160.0444,764.8086,156.0444,768.8086" style="stroke:#495057;stroke-width:1;stroke-linejoin:miter;stroke-miterlimit:10;"/><g class="legend" data-source-line="33"><rect fill="#F8F9FA" height="111.7813" rx="3" ry="3" style="stroke:#CED4DA;stroke-width:1;" width="304.1367" x="271.1567" y="817.8086"/><text fill="#000000" font-family="'DejaVu Sans'" font-size="14" font-weight="700" lengthAdjust="spacing" textLength="49.2051" x="281.0308" y="837.8037">colour</text><text fill="#000000" font-family="'DejaVu Sans'" font-size="14" font-weight="700" lengthAdjust="spacing" textLength="30.8164" x="339.9839" y="837.8037">role</text><rect fill="#FFE3E3" height="16.2969" style="stroke:none;stroke-width:1;" width="58.9531" x="276.1567" y="841.1055"/><text fill="#000000" font-family="'DejaVu Sans'" font-size="14" lengthAdjust="spacing" textLength="4.4502" x="276.1567" y="854.1006">&#160;</text><text fill="#000000" font-family="'DejaVu Sans'" font-size="14" lengthAdjust="spacing" textLength="226.2832" x="339.5601" y="854.1006">trust boundary / untrusted input</text><rect fill="#D3F9D8" height="16.2969" style="stroke:none;stroke-width:1;" width="58.9531" x="276.1567" y="857.4023"/><text fill="#000000" font-family="'DejaVu Sans'" font-size="14" lengthAdjust="spacing" textLength="4.4502" x="276.1567" y="870.3975">&#160;</text><text fill="#000000" font-family="'DejaVu Sans'" font-size="14" lengthAdjust="spacing" textLength="113.6406" x="339.5601" y="870.3975">input-size guard</text><rect fill="#DBE4FF" height="16.2969" style="stroke:none;stroke-width:1;" width="58.9531" x="276.1567" y="873.6992"/><text fill="#000000" font-family="'DejaVu Sans'" font-size="14" lengthAdjust="spacing" textLength="4.4502" x="276.1567" y="886.6943">&#160;</text><text fill="#000000" font-family="'DejaVu Sans'" font-size="14" lengthAdjust="spacing" textLength="175.6357" x="339.5601" y="886.6943">bounded parse (no exec)</text><rect fill="#E5DBFF" height="16.2969" style="stroke:none;stroke-width:1;" width="58.9531" x="276.1567" y="889.9961"/><text fill="#000000" font-family="'DejaVu Sans'" font-size="14" lengthAdjust="spacing" textLength="4.4502" x="276.1567" y="902.9912">&#160;</text><text fill="#000000" font-family="'DejaVu Sans'" font-size="14" lengthAdjust="spacing" textLength="122.7188" x="339.5601" y="902.9912">bounded analysis</text><rect fill="#C3FAE8" height="16.2969" style="stroke:none;stroke-width:1;" width="58.9531" x="276.1567" y="906.293"/><text fill="#000000" font-family="'DejaVu Sans'" font-size="14" lengthAdjust="spacing" textLength="4.4502" x="276.1567" y="919.2881">&#160;</text><text fill="#000000" font-family="'DejaVu Sans'" font-size="14" lengthAdjust="spacing" textLength="94.7666" x="339.5601" y="919.2881">trusted result</text><line style="stroke:#000000;stroke-width:1;" x1="276.1567" x2="570.2935" y1="824.8086" y2="824.8086"/><line style="stroke:#000000;stroke-width:1;" x1="276.1567" x2="570.2935" y1="841.1055" y2="841.1055"/><line style="stroke:#000000;stroke-width:1;" x1="276.1567" x2="570.2935" y1="857.4023" y2="857.4023"/><line style="stroke:#000000;stroke-width:1;" x1="276.1567" x2="570.2935" y1="873.6992" y2="873.6992"/><line style="stroke:#000000;stroke-width:1;" x1="276.1567" x2="570.2935" y1="889.9961" y2="889.9961"/><line style="stroke:#000000;stroke-width:1;" x1="276.1567" x2="570.2935" y1="906.293" y2="906.293"/><line style="stroke:#000000;stroke-width:1;" x1="276.1567" x2="570.2935" y1="922.5898" y2="922.5898"/><line style="stroke:#000000;stroke-width:1;" x1="276.1567" x2="276.1567" y1="824.8086" y2="922.5898"/><line style="stroke:#000000;stroke-width:1;" x1="335.1099" x2="335.1099" y1="824.8086" y2="922.5898"/><line style="stroke:#000000;stroke-width:1;" x1="570.2935" x2="570.2935" y1="824.8086" y2="922.5898"/></g></g></svg>