<?xml version="1.0" encoding="UTF-8" standalone="no"?>
<!DOCTYPE svg PUBLIC "-//W3C//DTD SVG 1.1//EN"
 "http://www.w3.org/Graphics/SVG/1.1/DTD/svg11.dtd">
<!-- Generated by graphviz version 15.1.0 (0)
 -->
<!-- Title: wl_kernel Pages: 1 -->
<svg width="1092pt" height="646pt"
 viewBox="0.00 0.00 1092.00 646.00" xmlns="http://www.w3.org/2000/svg" xmlns:xlink="http://www.w3.org/1999/xlink">
<g id="graph0" class="graph" transform="scale(1 1) rotate(0) translate(4 642.38)">
<title>wl_kernel</title>
<polygon fill="white" stroke="none" points="-4,4 -4,-642.38 1088.44,-642.38 1088.44,4 -4,4"/>
<text xml:space="preserve" text-anchor="middle" x="542.22" y="-621.08" font-family="DejaVu Sans" font-size="14.00">Weisfeiler&#45;Lehman refinement — labels sharpen each round; their histogram is the compared feature vector</text>
<g id="clust1" class="cluster">
<title>cluster_it0</title>
<path fill="white" stroke="#868e96" d="M159.57,-8C159.57,-8 1034.07,-8 1034.07,-8 1040.07,-8 1046.07,-14 1046.07,-20 1046.07,-20 1046.07,-141 1046.07,-141 1046.07,-147 1040.07,-153 1034.07,-153 1034.07,-153 159.57,-153 159.57,-153 153.57,-153 147.57,-147 147.57,-141 147.57,-141 147.57,-20 147.57,-20 147.57,-14 153.57,-8 159.57,-8"/>
<text xml:space="preserve" text-anchor="middle" x="596.82" y="-135.7" font-family="DejaVu Sans" font-size="14.00">Iteration 0 &#160;&#160;label = node kind</text>
</g>
<g id="clust2" class="cluster">
<title>cluster_it1</title>
<path fill="white" stroke="#868e96" d="M112.32,-161C112.32,-161 1050.94,-161 1050.94,-161 1056.94,-161 1062.94,-167 1062.94,-173 1062.94,-173 1062.94,-294 1062.94,-294 1062.94,-300 1056.94,-306 1050.94,-306 1050.94,-306 112.32,-306 112.32,-306 106.32,-306 100.32,-300 100.32,-294 100.32,-294 100.32,-173 100.32,-173 100.32,-167 106.32,-161 112.32,-161"/>
<text xml:space="preserve" text-anchor="middle" x="581.63" y="-288.7" font-family="DejaVu Sans" font-size="14.00">Iteration 1 &#160;&#160;label = hash(own + sorted neighbours)</text>
</g>
<g id="clust3" class="cluster">
<title>cluster_it2</title>
<path fill="white" stroke="#868e96" d="M112.32,-314C112.32,-314 1064.44,-314 1064.44,-314 1070.44,-314 1076.44,-320 1076.44,-326 1076.44,-326 1076.44,-447 1076.44,-447 1076.44,-453 1070.44,-459 1064.44,-459 1064.44,-459 112.32,-459 112.32,-459 106.32,-459 100.32,-453 100.32,-447 100.32,-447 100.32,-326 100.32,-326 100.32,-320 106.32,-314 112.32,-314"/>
<text xml:space="preserve" text-anchor="middle" x="588.38" y="-441.7" font-family="DejaVu Sans" font-size="14.00">Iteration 2 &#160;&#160;refine once more</text>
</g>
<!-- a0 -->
<g id="node1" class="node">
<title>a0</title>
<path fill="#dbe4ff" stroke="#495057" d="M288.94,-58.25C288.94,-58.25 233.19,-58.25 233.19,-58.25 227.19,-58.25 221.19,-52.25 221.19,-46.25 221.19,-46.25 221.19,-27.75 221.19,-27.75 221.19,-21.75 227.19,-15.75 233.19,-15.75 233.19,-15.75 288.94,-15.75 288.94,-15.75 294.94,-15.75 300.94,-21.75 300.94,-27.75 300.94,-27.75 300.94,-46.25 300.94,-46.25 300.94,-52.25 294.94,-58.25 288.94,-58.25"/>
<text xml:space="preserve" text-anchor="middle" x="261.07" y="-40.95" font-family="DejaVu Sans" font-size="14.00">n1 &#160;Class</text>
<text xml:space="preserve" text-anchor="middle" x="261.07" y="-23.7" font-family="DejaVu Sans" font-size="14.00">label C</text>
</g>
<!-- b0 -->
<g id="node2" class="node">
<title>b0</title>
<path fill="#d3f9d8" stroke="#495057" d="M652.07,-58.25C652.07,-58.25 573.82,-58.25 573.82,-58.25 567.82,-58.25 561.82,-52.25 561.82,-46.25 561.82,-46.25 561.82,-27.75 561.82,-27.75 561.82,-21.75 567.82,-15.75 573.82,-15.75 573.82,-15.75 652.07,-15.75 652.07,-15.75 658.07,-15.75 664.07,-21.75 664.07,-27.75 664.07,-27.75 664.07,-46.25 664.07,-46.25 664.07,-52.25 658.07,-58.25 652.07,-58.25"/>
<text xml:space="preserve" text-anchor="middle" x="612.94" y="-40.95" font-family="DejaVu Sans" font-size="14.00">n2 &#160;Function</text>
<text xml:space="preserve" text-anchor="middle" x="612.94" y="-23.7" font-family="DejaVu Sans" font-size="14.00">label F</text>
</g>
<!-- a0&#45;&gt;b0 -->
<g id="edge1" class="edge">
<title>a0&#45;&gt;b0</title>
<path fill="none" stroke="#4c6ef5" d="M301.18,-37C361.7,-37 478.51,-37 550.41,-37"/>
<polygon fill="#4c6ef5" stroke="#4c6ef5" points="550.03,-40.5 560.03,-37 550.03,-33.5 550.03,-40.5"/>
</g>
<!-- c0 -->
<g id="node3" class="node">
<title>c0</title>
<path fill="#fff3bf" stroke="#495057" d="M638.19,-119.25C638.19,-119.25 587.69,-119.25 587.69,-119.25 581.69,-119.25 575.69,-113.25 575.69,-107.25 575.69,-107.25 575.69,-88.75 575.69,-88.75 575.69,-82.75 581.69,-76.75 587.69,-76.75 587.69,-76.75 638.19,-76.75 638.19,-76.75 644.19,-76.75 650.19,-82.75 650.19,-88.75 650.19,-88.75 650.19,-107.25 650.19,-107.25 650.19,-113.25 644.19,-119.25 638.19,-119.25"/>
<text xml:space="preserve" text-anchor="middle" x="612.94" y="-101.95" font-family="DejaVu Sans" font-size="14.00">n3 &#160;Field</text>
<text xml:space="preserve" text-anchor="middle" x="612.94" y="-84.7" font-family="DejaVu Sans" font-size="14.00">label D</text>
</g>
<!-- a0&#45;&gt;c0 -->
<g id="edge2" class="edge">
<title>a0&#45;&gt;c0</title>
<path fill="none" stroke="#4c6ef5" d="M301.28,-40.96C347.17,-45.9 425.32,-55.28 491.69,-68 515.81,-72.62 542.31,-79.08 564.29,-84.83"/>
<polygon fill="#4c6ef5" stroke="#4c6ef5" points="563.31,-88.19 573.87,-87.36 565.1,-81.42 563.31,-88.19"/>
</g>
<!-- a1 -->
<g id="node7" class="node">
<title>a1</title>
<path fill="#dbe4ff" stroke="#495057" d="M309.94,-211.25C309.94,-211.25 212.19,-211.25 212.19,-211.25 206.19,-211.25 200.19,-205.25 200.19,-199.25 200.19,-199.25 200.19,-180.75 200.19,-180.75 200.19,-174.75 206.19,-168.75 212.19,-168.75 212.19,-168.75 309.94,-168.75 309.94,-168.75 315.94,-168.75 321.94,-174.75 321.94,-180.75 321.94,-180.75 321.94,-199.25 321.94,-199.25 321.94,-205.25 315.94,-211.25 309.94,-211.25"/>
<text xml:space="preserve" text-anchor="middle" x="261.07" y="-193.95" font-family="DejaVu Sans" font-size="14.00">n1</text>
<text xml:space="preserve" text-anchor="middle" x="261.07" y="-176.7" font-family="DejaVu Sans" font-size="14.00">h(C | D,F) = C1</text>
</g>
<!-- a0&#45;&gt;a1 -->
<g id="edge13" class="edge">
<title>a0&#45;&gt;a1</title>
<path fill="none" stroke="#7048e8" stroke-dasharray="1,5" d="M220.75,-28.04C161.7,-17.61 54.16,-9.5 12.44,-77 -4.15,-103.84 -4.15,-121.16 12.44,-148 47.41,-204.59 128.47,-208.79 188.58,-202.87"/>
<polygon fill="#7048e8" stroke="#7048e8" points="188.86,-206.36 198.41,-201.77 188.09,-199.4 188.86,-206.36"/>
</g>
<!-- d0 -->
<g id="node4" class="node">
<title>d0</title>
<path fill="#d3f9d8" stroke="#495057" d="M857.82,-58.25C857.82,-58.25 779.57,-58.25 779.57,-58.25 773.57,-58.25 767.57,-52.25 767.57,-46.25 767.57,-46.25 767.57,-27.75 767.57,-27.75 767.57,-21.75 773.57,-15.75 779.57,-15.75 779.57,-15.75 857.82,-15.75 857.82,-15.75 863.82,-15.75 869.82,-21.75 869.82,-27.75 869.82,-27.75 869.82,-46.25 869.82,-46.25 869.82,-52.25 863.82,-58.25 857.82,-58.25"/>
<text xml:space="preserve" text-anchor="middle" x="818.69" y="-40.95" font-family="DejaVu Sans" font-size="14.00">n4 &#160;Function</text>
<text xml:space="preserve" text-anchor="middle" x="818.69" y="-23.7" font-family="DejaVu Sans" font-size="14.00">label F</text>
</g>
<!-- b0&#45;&gt;d0 -->
<g id="edge3" class="edge">
<title>b0&#45;&gt;d0</title>
<path fill="none" stroke="#4c6ef5" d="M664.31,-37C691.98,-37 726.54,-37 755.84,-37"/>
<polygon fill="#4c6ef5" stroke="#4c6ef5" points="755.69,-40.5 765.69,-37 755.69,-33.5 755.69,-40.5"/>
</g>
<!-- b1 -->
<g id="node8" class="node">
<title>b1</title>
<path fill="#d3f9d8" stroke="#495057" d="M664.07,-211.25C664.07,-211.25 561.82,-211.25 561.82,-211.25 555.82,-211.25 549.82,-205.25 549.82,-199.25 549.82,-199.25 549.82,-180.75 549.82,-180.75 549.82,-174.75 555.82,-168.75 561.82,-168.75 561.82,-168.75 664.07,-168.75 664.07,-168.75 670.07,-168.75 676.07,-174.75 676.07,-180.75 676.07,-180.75 676.07,-199.25 676.07,-199.25 676.07,-205.25 670.07,-211.25 664.07,-211.25"/>
<text xml:space="preserve" text-anchor="middle" x="612.94" y="-193.95" font-family="DejaVu Sans" font-size="14.00">n2</text>
<text xml:space="preserve" text-anchor="middle" x="612.94" y="-176.7" font-family="DejaVu Sans" font-size="14.00">h(F | C,F) = F1a</text>
</g>
<!-- b0&#45;&gt;b1 -->
<g id="edge14" class="edge">
<title>b0&#45;&gt;b1</title>
<path fill="none" stroke="#7048e8" stroke-dasharray="1,5" d="M561.35,-43.64C541.44,-49.1 520.81,-59.01 509.69,-77 493.1,-103.84 493.1,-121.16 509.69,-148 516.69,-159.32 527.37,-167.59 539.26,-173.63"/>
<polygon fill="#7048e8" stroke="#7048e8" points="537.53,-176.69 548.09,-177.57 540.39,-170.3 537.53,-176.69"/>
</g>
<!-- c1 -->
<g id="node9" class="node">
<title>c1</title>
<path fill="#fff3bf" stroke="#495057" d="M655.82,-272.25C655.82,-272.25 570.07,-272.25 570.07,-272.25 564.07,-272.25 558.07,-266.25 558.07,-260.25 558.07,-260.25 558.07,-241.75 558.07,-241.75 558.07,-235.75 564.07,-229.75 570.07,-229.75 570.07,-229.75 655.82,-229.75 655.82,-229.75 661.82,-229.75 667.82,-235.75 667.82,-241.75 667.82,-241.75 667.82,-260.25 667.82,-260.25 667.82,-266.25 661.82,-272.25 655.82,-272.25"/>
<text xml:space="preserve" text-anchor="middle" x="612.94" y="-254.95" font-family="DejaVu Sans" font-size="14.00">n3</text>
<text xml:space="preserve" text-anchor="middle" x="612.94" y="-237.7" font-family="DejaVu Sans" font-size="14.00">h(D | C) = D1</text>
</g>
<!-- c0&#45;&gt;c1 -->
<g id="edge15" class="edge">
<title>c0&#45;&gt;c1</title>
<path fill="none" stroke="#7048e8" stroke-dasharray="1,5" d="M575.28,-111.88C551.81,-122.72 523.54,-140.3 509.69,-166 500.21,-183.61 499.18,-193.99 509.69,-211 518.19,-224.75 532.25,-233.78 547.29,-239.72"/>
<polygon fill="#7048e8" stroke="#7048e8" points="545.79,-242.9 556.38,-242.85 548.07,-236.28 545.79,-242.9"/>
</g>
<!-- e0 -->
<g id="node5" class="node">
<title>e0</title>
<path fill="#c3fae8" stroke="#495057" d="M1026.07,-58.25C1026.07,-58.25 981.57,-58.25 981.57,-58.25 975.57,-58.25 969.57,-52.25 969.57,-46.25 969.57,-46.25 969.57,-27.75 969.57,-27.75 969.57,-21.75 975.57,-15.75 981.57,-15.75 981.57,-15.75 1026.07,-15.75 1026.07,-15.75 1032.07,-15.75 1038.07,-21.75 1038.07,-27.75 1038.07,-27.75 1038.07,-46.25 1038.07,-46.25 1038.07,-52.25 1032.07,-58.25 1026.07,-58.25"/>
<text xml:space="preserve" text-anchor="middle" x="1003.82" y="-40.95" font-family="DejaVu Sans" font-size="14.00">n5 &#160;Call</text>
<text xml:space="preserve" text-anchor="middle" x="1003.82" y="-23.7" font-family="DejaVu Sans" font-size="14.00">label L</text>
</g>
<!-- d0&#45;&gt;e0 -->
<g id="edge4" class="edge">
<title>d0&#45;&gt;e0</title>
<path fill="none" stroke="#4c6ef5" d="M870.22,-37C897.7,-37 931.4,-37 957.95,-37"/>
<polygon fill="#4c6ef5" stroke="#4c6ef5" points="957.71,-40.5 967.71,-37 957.71,-33.5 957.71,-40.5"/>
</g>
<!-- d1 -->
<g id="node10" class="node">
<title>d1</title>
<path fill="#e5dbff" stroke="#495057" d="M869.07,-211.25C869.07,-211.25 768.32,-211.25 768.32,-211.25 762.32,-211.25 756.32,-205.25 756.32,-199.25 756.32,-199.25 756.32,-180.75 756.32,-180.75 756.32,-174.75 762.32,-168.75 768.32,-168.75 768.32,-168.75 869.07,-168.75 869.07,-168.75 875.07,-168.75 881.07,-174.75 881.07,-180.75 881.07,-180.75 881.07,-199.25 881.07,-199.25 881.07,-205.25 875.07,-211.25 869.07,-211.25"/>
<text xml:space="preserve" text-anchor="middle" x="818.69" y="-193.95" font-family="DejaVu Sans" font-size="14.00">n4</text>
<text xml:space="preserve" text-anchor="middle" x="818.69" y="-176.7" font-family="DejaVu Sans" font-size="14.00">h(F | F,L) = F1b</text>
</g>
<!-- d0&#45;&gt;d1 -->
<g id="edge16" class="edge">
<title>d0&#45;&gt;d1</title>
<path fill="none" stroke="#7048e8" stroke-dasharray="1,5" d="M818.69,-58.52C818.69,-91.43 818.69,-124.35 818.69,-157.27"/>
<polygon fill="#7048e8" stroke="#7048e8" points="815.19,-156.91 818.69,-166.91 822.19,-156.91 815.19,-156.91"/>
</g>
<!-- e1 -->
<g id="node11" class="node">
<title>e1</title>
<path fill="#c3fae8" stroke="#495057" d="M1042.94,-211.25C1042.94,-211.25 964.69,-211.25 964.69,-211.25 958.69,-211.25 952.69,-205.25 952.69,-199.25 952.69,-199.25 952.69,-180.75 952.69,-180.75 952.69,-174.75 958.69,-168.75 964.69,-168.75 964.69,-168.75 1042.94,-168.75 1042.94,-168.75 1048.94,-168.75 1054.94,-174.75 1054.94,-180.75 1054.94,-180.75 1054.94,-199.25 1054.94,-199.25 1054.94,-205.25 1048.94,-211.25 1042.94,-211.25"/>
<text xml:space="preserve" text-anchor="middle" x="1003.82" y="-193.95" font-family="DejaVu Sans" font-size="14.00">n5</text>
<text xml:space="preserve" text-anchor="middle" x="1003.82" y="-176.7" font-family="DejaVu Sans" font-size="14.00">h(L | F) = L1</text>
</g>
<!-- e0&#45;&gt;e1 -->
<g id="edge17" class="edge">
<title>e0&#45;&gt;e1</title>
<path fill="none" stroke="#7048e8" stroke-dasharray="1,5" d="M1003.82,-58.52C1003.82,-91.43 1003.82,-124.35 1003.82,-157.27"/>
<polygon fill="#7048e8" stroke="#7048e8" points="1000.32,-156.91 1003.82,-166.91 1007.32,-156.91 1000.32,-156.91"/>
</g>
<!-- h0 -->
<g id="node6" class="node">
<title>h0</title>
<polygon fill="#fff9db" stroke="#f59f00" points="360.57,-119.25 155.57,-119.25 155.57,-76.75 366.57,-76.75 366.57,-113.25 360.57,-119.25"/>
<polyline fill="none" stroke="#f59f00" points="360.57,-119.25 360.57,-113.25"/>
<polyline fill="none" stroke="#f59f00" points="366.57,-113.25 360.57,-113.25"/>
<text xml:space="preserve" text-anchor="middle" x="261.07" y="-101.95" font-family="DejaVu Sans" font-size="14.00">histogram: C:1 &#160;F:2 &#160;D:1 &#160;L:1</text>
<text xml:space="preserve" text-anchor="middle" x="261.07" y="-84.7" font-family="DejaVu Sans" font-size="14.00">4 distinct labels</text>
</g>
<!-- a1&#45;&gt;b1 -->
<g id="edge5" class="edge">
<title>a1&#45;&gt;b1</title>
<path fill="none" stroke="#ced4da" d="M322.21,-190C382.02,-190 473.88,-190 538.09,-190"/>
<polygon fill="#ced4da" stroke="#ced4da" points="537.83,-193.5 547.83,-190 537.83,-186.5 537.83,-193.5"/>
</g>
<!-- a1&#45;&gt;c1 -->
<g id="edge6" class="edge">
<title>a1&#45;&gt;c1</title>
<path fill="none" stroke="#ced4da" d="M322.31,-196.29C368.8,-201.59 434.6,-210.06 491.69,-221 509.63,-224.44 528.9,-228.89 546.64,-233.32"/>
<polygon fill="#ced4da" stroke="#ced4da" points="545.73,-236.7 556.28,-235.76 547.45,-229.91 545.73,-236.7"/>
</g>
<!-- a2 -->
<g id="node13" class="node">
<title>a2</title>
<path fill="#dbe4ff" stroke="#495057" d="M327.57,-364.25C327.57,-364.25 194.57,-364.25 194.57,-364.25 188.57,-364.25 182.57,-358.25 182.57,-352.25 182.57,-352.25 182.57,-333.75 182.57,-333.75 182.57,-327.75 188.57,-321.75 194.57,-321.75 194.57,-321.75 327.57,-321.75 327.57,-321.75 333.57,-321.75 339.57,-327.75 339.57,-333.75 339.57,-333.75 339.57,-352.25 339.57,-352.25 339.57,-358.25 333.57,-364.25 327.57,-364.25"/>
<text xml:space="preserve" text-anchor="middle" x="261.07" y="-346.95" font-family="DejaVu Sans" font-size="14.00">n1</text>
<text xml:space="preserve" text-anchor="middle" x="261.07" y="-329.7" font-family="DejaVu Sans" font-size="14.00">h(C1 | D1,F1a) = C2</text>
</g>
<!-- a1&#45;&gt;a2 -->
<g id="edge18" class="edge">
<title>a1&#45;&gt;a2</title>
<path fill="none" stroke="#7048e8" stroke-dasharray="1,5" d="M199.9,-177.81C139.07,-169.74 49.62,-169.85 12.44,-230 -4.15,-256.84 -4.15,-274.16 12.44,-301 44.1,-352.23 113.54,-360.53 171.01,-357.24"/>
<polygon fill="#7048e8" stroke="#7048e8" points="171.09,-360.74 180.82,-356.55 170.59,-353.76 171.09,-360.74"/>
</g>
<!-- b1&#45;&gt;d1 -->
<g id="edge7" class="edge">
<title>b1&#45;&gt;d1</title>
<path fill="none" stroke="#ced4da" d="M676.46,-190C697.98,-190 722.26,-190 744.55,-190"/>
<polygon fill="#ced4da" stroke="#ced4da" points="744.48,-193.5 754.48,-190 744.48,-186.5 744.48,-193.5"/>
</g>
<!-- b2 -->
<g id="node14" class="node">
<title>b2</title>
<path fill="#d3f9d8" stroke="#495057" d="M686.19,-364.25C686.19,-364.25 539.69,-364.25 539.69,-364.25 533.69,-364.25 527.69,-358.25 527.69,-352.25 527.69,-352.25 527.69,-333.75 527.69,-333.75 527.69,-327.75 533.69,-321.75 539.69,-321.75 539.69,-321.75 686.19,-321.75 686.19,-321.75 692.19,-321.75 698.19,-327.75 698.19,-333.75 698.19,-333.75 698.19,-352.25 698.19,-352.25 698.19,-358.25 692.19,-364.25 686.19,-364.25"/>
<text xml:space="preserve" text-anchor="middle" x="612.94" y="-346.95" font-family="DejaVu Sans" font-size="14.00">n2</text>
<text xml:space="preserve" text-anchor="middle" x="612.94" y="-329.7" font-family="DejaVu Sans" font-size="14.00">h(F1a | C1,F1b) = F2a</text>
</g>
<!-- b1&#45;&gt;b2 -->
<g id="edge19" class="edge">
<title>b1&#45;&gt;b2</title>
<path fill="none" stroke="#7048e8" stroke-dasharray="1,5" d="M549.4,-200.48C533.57,-206.39 518.59,-215.61 509.69,-230 493.1,-256.84 493.1,-274.16 509.69,-301 512.85,-306.12 516.77,-310.61 521.21,-314.55"/>
<polygon fill="#7048e8" stroke="#7048e8" points="519.05,-317.31 529.13,-320.57 523.28,-311.73 519.05,-317.31"/>
</g>
<!-- c2 -->
<g id="node15" class="node">
<title>c2</title>
<path fill="#fff3bf" stroke="#495057" d="M664.82,-425.25C664.82,-425.25 561.07,-425.25 561.07,-425.25 555.07,-425.25 549.07,-419.25 549.07,-413.25 549.07,-413.25 549.07,-394.75 549.07,-394.75 549.07,-388.75 555.07,-382.75 561.07,-382.75 561.07,-382.75 664.82,-382.75 664.82,-382.75 670.82,-382.75 676.82,-388.75 676.82,-394.75 676.82,-394.75 676.82,-413.25 676.82,-413.25 676.82,-419.25 670.82,-425.25 664.82,-425.25"/>
<text xml:space="preserve" text-anchor="middle" x="612.94" y="-407.95" font-family="DejaVu Sans" font-size="14.00">n3</text>
<text xml:space="preserve" text-anchor="middle" x="612.94" y="-390.7" font-family="DejaVu Sans" font-size="14.00">h(D1 | C1) = D2</text>
</g>
<!-- c1&#45;&gt;c2 -->
<g id="edge20" class="edge">
<title>c1&#45;&gt;c2</title>
<path fill="none" stroke="#7048e8" stroke-dasharray="1,5" d="M559.8,-272.74C540.41,-283.59 520.59,-298.78 509.69,-319 500.21,-336.61 499.18,-346.99 509.69,-364 516.45,-374.94 526.73,-382.89 538.23,-388.68"/>
<polygon fill="#7048e8" stroke="#7048e8" points="536.64,-391.8 547.2,-392.61 539.45,-385.39 536.64,-391.8"/>
</g>
<!-- d1&#45;&gt;e1 -->
<g id="edge8" class="edge">
<title>d1&#45;&gt;e1</title>
<path fill="none" stroke="#ced4da" d="M881.43,-190C900.61,-190 921.75,-190 940.94,-190"/>
<polygon fill="#ced4da" stroke="#ced4da" points="940.78,-193.5 950.78,-190 940.78,-186.5 940.78,-193.5"/>
</g>
<!-- d2 -->
<g id="node16" class="node">
<title>d2</title>
<path fill="#e5dbff" stroke="#495057" d="M891.19,-364.25C891.19,-364.25 746.19,-364.25 746.19,-364.25 740.19,-364.25 734.19,-358.25 734.19,-352.25 734.19,-352.25 734.19,-333.75 734.19,-333.75 734.19,-327.75 740.19,-321.75 746.19,-321.75 746.19,-321.75 891.19,-321.75 891.19,-321.75 897.19,-321.75 903.19,-327.75 903.19,-333.75 903.19,-333.75 903.19,-352.25 903.19,-352.25 903.19,-358.25 897.19,-364.25 891.19,-364.25"/>
<text xml:space="preserve" text-anchor="middle" x="818.69" y="-346.95" font-family="DejaVu Sans" font-size="14.00">n4</text>
<text xml:space="preserve" text-anchor="middle" x="818.69" y="-329.7" font-family="DejaVu Sans" font-size="14.00">h(F1b | F1a,L1) = F2b</text>
</g>
<!-- d1&#45;&gt;d2 -->
<g id="edge21" class="edge">
<title>d1&#45;&gt;d2</title>
<path fill="none" stroke="#7048e8" stroke-dasharray="1,5" d="M818.69,-211.52C818.69,-244.43 818.69,-277.35 818.69,-310.27"/>
<polygon fill="#7048e8" stroke="#7048e8" points="815.19,-309.91 818.69,-319.91 822.19,-309.91 815.19,-309.91"/>
</g>
<!-- e2 -->
<g id="node17" class="node">
<title>e2</title>
<path fill="#c3fae8" stroke="#495057" d="M1056.44,-364.25C1056.44,-364.25 951.19,-364.25 951.19,-364.25 945.19,-364.25 939.19,-358.25 939.19,-352.25 939.19,-352.25 939.19,-333.75 939.19,-333.75 939.19,-327.75 945.19,-321.75 951.19,-321.75 951.19,-321.75 1056.44,-321.75 1056.44,-321.75 1062.44,-321.75 1068.44,-327.75 1068.44,-333.75 1068.44,-333.75 1068.44,-352.25 1068.44,-352.25 1068.44,-358.25 1062.44,-364.25 1056.44,-364.25"/>
<text xml:space="preserve" text-anchor="middle" x="1003.82" y="-346.95" font-family="DejaVu Sans" font-size="14.00">n5</text>
<text xml:space="preserve" text-anchor="middle" x="1003.82" y="-329.7" font-family="DejaVu Sans" font-size="14.00">h(L1 | F1b) = L2</text>
</g>
<!-- e1&#45;&gt;e2 -->
<g id="edge22" class="edge">
<title>e1&#45;&gt;e2</title>
<path fill="none" stroke="#7048e8" stroke-dasharray="1,5" d="M1003.82,-211.52C1003.82,-244.43 1003.82,-277.35 1003.82,-310.27"/>
<polygon fill="#7048e8" stroke="#7048e8" points="1000.32,-309.91 1003.82,-319.91 1007.32,-309.91 1000.32,-309.91"/>
</g>
<!-- h1 -->
<g id="node12" class="node">
<title>h1</title>
<polygon fill="#fff9db" stroke="#f59f00" points="407.82,-272.25 108.32,-272.25 108.32,-229.75 413.82,-229.75 413.82,-266.25 407.82,-272.25"/>
<polyline fill="none" stroke="#f59f00" points="407.82,-272.25 407.82,-266.25"/>
<polyline fill="none" stroke="#f59f00" points="413.82,-266.25 407.82,-266.25"/>
<text xml:space="preserve" text-anchor="middle" x="261.07" y="-254.95" font-family="DejaVu Sans" font-size="14.00">histogram: C1:1 &#160;F1a:1 &#160;F1b:1 &#160;D1:1 &#160;L1:1</text>
<text xml:space="preserve" text-anchor="middle" x="261.07" y="-237.7" font-family="DejaVu Sans" font-size="14.00">5 distinct labels — n2, n4 split</text>
</g>
<!-- a2&#45;&gt;b2 -->
<g id="edge9" class="edge">
<title>a2&#45;&gt;b2</title>
<path fill="none" stroke="#ced4da" d="M339.72,-343C391.79,-343 460.74,-343 516.21,-343"/>
<polygon fill="#ced4da" stroke="#ced4da" points="515.96,-346.5 525.96,-343 515.96,-339.5 515.96,-346.5"/>
</g>
<!-- a2&#45;&gt;c2 -->
<g id="edge10" class="edge">
<title>a2&#45;&gt;c2</title>
<path fill="none" stroke="#ced4da" d="M340,-351.36C384.61,-356.68 441.52,-364.38 491.69,-374 506.66,-376.87 522.54,-380.44 537.7,-384.12"/>
<polygon fill="#ced4da" stroke="#ced4da" points="536.56,-387.44 547.11,-386.44 538.24,-380.65 536.56,-387.44"/>
</g>
<!-- b2&#45;&gt;d2 -->
<g id="edge11" class="edge">
<title>b2&#45;&gt;d2</title>
<path fill="none" stroke="#ced4da" d="M698.58,-343C706.53,-343 714.63,-343 722.67,-343"/>
<polygon fill="#ced4da" stroke="#ced4da" points="722.46,-346.5 732.46,-343 722.46,-339.5 722.46,-346.5"/>
</g>
<!-- d2&#45;&gt;e2 -->
<g id="edge12" class="edge">
<title>d2&#45;&gt;e2</title>
<path fill="none" stroke="#ced4da" d="M903.48,-343C911.46,-343 919.51,-343 927.4,-343"/>
<polygon fill="#ced4da" stroke="#ced4da" points="927.29,-346.5 937.29,-343 927.29,-339.5 927.29,-346.5"/>
</g>
<!-- h2 -->
<g id="node18" class="node">
<title>h2</title>
<polygon fill="#fff9db" stroke="#f59f00" points="407.82,-425.25 108.32,-425.25 108.32,-382.75 413.82,-382.75 413.82,-419.25 407.82,-425.25"/>
<polyline fill="none" stroke="#f59f00" points="407.82,-425.25 407.82,-419.25"/>
<polyline fill="none" stroke="#f59f00" points="413.82,-419.25 407.82,-419.25"/>
<text xml:space="preserve" text-anchor="middle" x="261.07" y="-407.95" font-family="DejaVu Sans" font-size="14.00">histogram: C2:1 &#160;F2a:1 &#160;F2b:1 &#160;D2:1 &#160;L2:1</text>
<text xml:space="preserve" text-anchor="middle" x="261.07" y="-390.7" font-family="DejaVu Sans" font-size="14.00">5 distinct labels — partition stable</text>
</g>
<!-- legend -->
<g id="node19" class="node">
<title>legend</title>
<polygon fill="white" stroke="none" points="491.69,-613.12 30.44,-613.12 30.44,-466.88 491.69,-466.88 491.69,-613.12"/>
<polygon fill="#d3f9d8" stroke="none" points="30.44,-583.88 30.44,-613.12 491.69,-613.12 491.69,-583.88 30.44,-583.88"/>
<polygon fill="none" stroke="#495057" points="30.44,-583.88 30.44,-613.12 491.69,-613.12 491.69,-583.88 30.44,-583.88"/>
<text xml:space="preserve" text-anchor="start" x="101.32" y="-593.62" font-family="DejaVu Sans" font-size="14.00">label class F &#160;(n2, n4 — identical until refined)</text>
<polygon fill="#e5dbff" stroke="none" points="30.44,-554.62 30.44,-583.88 491.69,-583.88 491.69,-554.62 30.44,-554.62"/>
<polygon fill="none" stroke="#495057" points="30.44,-554.62 30.44,-583.88 491.69,-583.88 491.69,-554.62 30.44,-554.62"/>
<text xml:space="preserve" text-anchor="start" x="36.44" y="-564.38" font-family="DejaVu Sans" font-size="14.00">n4 splits to a new class at iteration 1 (neighbourhood F,L differs)</text>
<polygon fill="none" stroke="#495057" points="30.44,-525.38 30.44,-554.62 491.69,-554.62 491.69,-525.38 30.44,-525.38"/>
<text xml:space="preserve" text-anchor="start" x="150.82" y="-535.12" font-family="DejaVu Sans" font-size="14.00" fill="#4c6ef5">AstChild edge (graph structure)</text>
<polygon fill="none" stroke="#495057" points="30.44,-496.12 30.44,-525.38 491.69,-525.38 491.69,-496.12 30.44,-496.12"/>
<text xml:space="preserve" text-anchor="start" x="70.94" y="-505.88" font-family="DejaVu Sans" font-size="14.00" fill="#7048e8">refinement of the same node across iterations (dotted)</text>
<polygon fill="#fff9db" stroke="none" points="30.44,-466.88 30.44,-496.12 491.69,-496.12 491.69,-466.88 30.44,-466.88"/>
<polygon fill="none" stroke="#495057" points="30.44,-466.88 30.44,-496.12 491.69,-496.12 491.69,-466.88 30.44,-466.88"/>
<text xml:space="preserve" text-anchor="start" x="90.44" y="-476.62" font-family="DejaVu Sans" font-size="14.00">per&#45;iteration label histogram = WL feature vector</text>
</g>
</g>
</svg>
